<svg id="black-bear" xmlns="http://www.w3.org/2000/svg" viewBox="0 0 1033.69 558.3"><defs><style>.cls-1,.cls-2{fill:#61ff40;stroke-linejoin:round;stroke-width:0.25px;}.cls-1{stroke:#483737;}.cls-2{stroke:#4daf31;}</style></defs><ellipse class="cls-1" cx="227.25" cy="204.8" rx="2.37" ry="1.5"/><ellipse class="cls-1" cx="231.32" cy="216.03" rx="2.54" ry="1.27"/><path class="cls-2" d="M207.39,175.75c.11.92,3.93,2.54,2.54,4s-1.7,3.35.3,5,3,.57,3.67,2.31a24.81,24.81,0,0,0,1.69,3.53c.15.27,3.11,1.08,2.65,2.81s.58,4.39,1.85,1.74,1.82-3.29.81-4.25-1.51,1.35-1.62-1.3.92-2.65.92-2.65,2.6-1.19-.34-3.45-6.27-2.32-6-3.94.88-4.39,1.45-4.73c.3-.18.42-1.26.67-2.31h-1.87l-.41,1.42h-2.23l-5,0A6.08,6.08,0,0,1,207.39,175.75Z"/><path class="cls-2" d="M227.82,187.45c-.92,2.16.35,2.23-.57,5.25s-3.81,4.05.34,5.5,5.43,3.11,6.35,1,2-2.37,1.79-3.65-2.22-5.2-.56-6.07l-.09-2.41-1.22-2-.15-.58c-.41-.09-.63-.49-.71-1.88,0-.21,0-.4,0-.6l-.47-1.31-1.65-1.37-2.33.07-1.17,1.28C227.89,183.66,228.23,186.5,227.82,187.45Z"/><polygon class="cls-2" points="248.47 231.31 248.75 231.67 248.82 231.28 248.47 231.31"/><path class="cls-2" d="M183.61,84l3.83.07,2.2.21-.91,3L190,89.86l-1.28,2.8,1.49,1,.54,1.21,2.46-1.55,1.34-2-2.79-2,.13-3.62.17-2.27L191,82l-.65-1.28V79.07l-3.24,1-3.75,1.76-.52-2.06-.58-1.37-1.64-.86-2.3-.09,15.35-17.34,10.55-10.87h0l-2-.41-.4-.14c-.21.59-1.07.51-1.65,1.31-1.1,1.5-4.6.87-6.84,2s-3.95-2.28-6.06-1-5.46,1.25-10.5,1-2.06-1.13-6-2-9.63.88-16.79,2-4.11,1.31-4.77,3.14,2.58,1.49-.85,3.47-1.54,3.83-1.21,5.08-2.52,2.54-3,3.92-3.17,1.83-5.23,1.38-6,2.75-9,4.4,3.9,2.93,5.51,4.8c1.1,1.27,5.92,2.2,8.84,2.66l-.12-.42,5.48-2.22,3.52-2.07,4.63-1.72-.05.77-3.41,1-3.83,3.06-1.28,1.84,3.28-.67,3.06-1,3.37-.65,1.51-.2,1.4-2.16,3.25-.66,1.7,1.32,3.52,1.43,3.57-.26,3.31,1.11,1.83.59,2.43,3.26Z"/><path class="cls-2" d="M277.25,176.35c1-1.83-1.39-4.89-3-5.35s-1.51,0-1.89.95-1.93.46-2.94,2.83S267,173.1,267,173.1l-2.53.9v-4.45L262.22,174s-1.43,7.12-2,2.35,0-3.71-.54-5.95-2.49-1.59-.91-3.35,4.35-3.81,4.35-5.41,5.5-11.23,3.37-12.83-7.36,4-11.12,5-5.22,6.26-4.24,10.38.18,5.28.18,6.85,0,8.06-.3,9.1a0,0,0,0,0,0,0l1.88-.58,1.82-.25,1.87.8,2.57-.43,1.71,1.82,2,.11,1.21-.66.94.51.64-.45-.46-.68.36-1.4-.3-.91,1.29-.54,2.2-.23,2.42.38,3.29-.44,1.59.86.68,1.07c.11-.13.25-.29.42-.47C277.56,177.86,276.43,177.9,277.25,176.35Z"/><path class="cls-2" d="M340,126.82l-1.21-1.9,1.31-4.58-.88-1-1.93.56-.61-.87-2.77,2.52-1.57,2.61-1.39,1.53-1.28.52-.9.17-.51.83h-4.9l-4.05,0-1.38.62-3.45,2.36.13.47-.23,1.31L312,133.16l-2.12-.28-2.06-.12-1.39.38-.07,1h0l-.05.33-2.93,2-2.33,1-1.52.46-1.89.94-2.09.45-1.3-.17-1.45-.7,1.33-1.32h0l1-1.18,1.85-1.87h0l.31-1.39.15-2-.88-.34-2.15,1.49-.52,0L294,131l1.92-1.35.76-1.54.3-1.53-1.52-1.31-2-.68-.82,1.28-.7.34-1.05,1.67.15-1.13-1.35.8-1.05,1.14-1.27,1.65-.62,1.44.19,2.09-.8,2.24-1.63,1.66-.7.47-.85.37-.93,0-.17-.23-.15-1.79.27-.88.35-.84.23-1.66,1.16-1.91,1.42-2.36,2.29-2.59H287l-2.73,2.17-.22-.4,1.48-1.21,2.36-2.18,1.91-.3,2.31-.67,1.95.35.08,0,2.44-.31-.84-1.34-.67-.1-.76-.13-.22-.94-2.69.29-2.62.75-1.38-1.28-1.33-.43,1.51-1.76-2.74,1.1-2.53,1.09L280,122l-1.17-1.15-2.91.7.2-.49,2.34-1.41,2.39-1.34,3.11-1.1h0l-2.87-.87-2.29.43-2.12-1-2.44-.53-1.73-.2-.58-.56.33-1.83h0l-.89,0-.56,1.27h-5.38c2.76,0,.34,5.83,8.2,12.89,7.34,6.59,2.63,13.05,8.37,13.53,0,0,11.62-1.95,12.35.8s4.76,3.32,2.4,4.93-4.49,3.55-5.95,4.35-7,2.64-6.65,6-.78,5.27.37,7.79-.06,2.07,2,2.53,0,1.26,2.05,1.26,3.9-1.38,5.1-2.41,1.9-5.05,3.5-3.44-1.24,2.64-1.2,3.67a11.13,11.13,0,0,1-1.36,3.37l2.28-1.43.66-1.16,1.7-1.26,1.44-.22,2.29-2,3.11-1,2.35-2.55.41-3.43v-.51c-2-.63-4-.78-3.93-1.93a3.61,3.61,0,0,1,3-2.84h0l-.75-.51,1.68.54,0-2.17.91-1.48-.41,2.84,1.07,1.31-.34.56a3,3,0,0,1,.32.45l1-1.28,1.22-1.33.28-1.29-.52-.61-.1-1.84.68.85.55.18,0,.88,2.66-2.63,1.23-2.45-.76-.16,1.07-.94-.19.42h1.73l4.07-1-.63-.65-4.16.64,2.53-1,1.61-.17,1.23-.17,2.15-.59,1.29.06,2-.55.47-1-.61-.76,0,1.24-1.1-.08-.42-1.8.51-1.8.66-.76,2-2,3.1-1,3.06-1.16,3.29-1.64Z"/><path class="cls-2" d="M288.5,193c-.42-3.57-1.15-4.24,1.23-6l-.26-1.7.26-1.48-.79-2.44-.35-2.94v-1.66c-1.18-2.35-2.27-4.81-2.14-3.23.2,2.64-1.47,2.64-2.35,2.64a15.78,15.78,0,0,0-2.92.6c-1-1-3,.77-4,1.85a2.35,2.35,0,0,1-.38.53l.3.47.47.17,3.19-1.56,1,.53,1.61,2.88.42,1.89,0,0a4.85,4.85,0,0,1,.34.5c.83,1.45,1.58,1.17,1.49,2.6s-.55,3.33-.66,4.21c0,.33-.09,1.07-.17,1.88l.94.78.19,1.51,1.34.42.93-.44.45-.87C288.58,193.86,288.55,193.5,288.5,193Z"/><path class="cls-2" d="M216,169.2l6.49-1.91-1.91-2.44,5.46-.24s-3.72-4.51-1.41-3.59,1.84.46,1.84.46,2.09.53,3.21-2,11.43-5.2,10.23-10-6.14,2.52-6.14,2.52l-1,2s-9.22,1.2-12.12,1.18.4-4.65.4-4.65-.57-2.12,6.67,0a14.58,14.58,0,0,0,4.12,0s-3.6.05-.7-3.61,4.53-.69,4.34-3.21.21-1-1.74-2.3,0,0-1.93-.46-5.64,5.39-6.42,6.48-6.52-5.56-6.52-5.56l2.41-.92,4.15.92,1.93-1.83-3.08-2.7v-1.66l1.93-3.52s1.16,2.37,1.51,1.9,3.41-3.06,3.41-3.06l-.67-1.39L229,124.71a4,4,0,0,0-1.22-2.48c-1-.64-.93.42-1.32,1.79s-2.92-7.91-4-10.13H198.72l-.61,2.73-1.05,2.74-1.11.88.29-3.15L193.08,116l-.68.65-.08,1.55-.71,2.86-1.86,4.5-1.86,3.06-1.83,3.06-2.58,3.2-.36,2.6-1.23,2.92L180,143.18l.64,1.86-.8,2.79.94,2.86.75,1.13-.41.8.45,4.76,1.41,3.45-.34,1.88.52.56,2.46.34.68.93,1.5.17,0,1,1.17.42,1.15,2-.1,1.76,3.27-.27.81-.08c.85-2.65,2-6.47,1.77-7.63-.32-1.83,1.83-6-.41-9.63s.18-10.55.41-12.15a8.4,8.4,0,0,0-.75-3.74l.34-2.24,3.15,2.32,2.33-2.32,3.06,2.25s4.86,3.37,6.48,1-.08,1.39-1,3.52a7.36,7.36,0,0,0-1,4.4c0,2.11,1.91,5.09,1,6.93a16.32,16.32,0,0,0-1.3,4.36s.66,1.42,1.3,0,1.76-.48,2.84-3.45,1.62-.26,1.62.9a8.06,8.06,0,0,1-1.08,3l-4.14,3.67-1.6,2.75,4.84,1.84s.92,3.23-1.33,2.93-4.25-2.47-4.25.05V174l5.17,0h2.23l.41-1.42H216Zm-30.81-13.76a34.55,34.55,0,0,0-1.78-3.9,19.78,19.78,0,0,0,3-6.19s2.91-.69,1.77,3.1,1.73,7,1.73,7S185.41,156.36,185.18,155.44Zm22.48-33.21c-.23,1.88-2.07,2-3.86,1.08s-1.65.94-2.7,1.4c0,0-1.75-2.31-1.46-2.48a8.39,8.39,0,0,0,3-2.83c.92-1.64,1-1.49,3.39-.13S207.88,120.36,207.66,122.23Z"/><polygon class="cls-2" points="183.64 97.36 182.74 96.94 182.74 96.94 181.88 97.97 181.38 99.39 181.98 100.41 181.93 101.91 182.49 103.4 183.51 103.41 183.01 100.78 186.24 97.1 183.64 97.36"/><polygon class="cls-2" points="196.02 113.69 194.2 112.32 193.83 110.75 193.62 109.61 191.4 109.26 190.11 108.76 187.84 108.04 187.16 108.8 187.07 110.6 189.39 111.19 189.3 112.14 190.96 113.3 191.07 114.47 194.51 115.99 196.07 115.52 196.07 115.52 196.02 113.69"/><path class="cls-2" d="M359.14,120.54l-3.62,3.77-4.5.48-3-1.67-.17-2.53.19-3.61,3.11-2.23-1.83-1.63-4,.33L339,116.22l-5.54,4.39-2.4.55,4-3.09,5.12-4.4L344,112.2l2.9-2.38,2.75-.23,3.86,0,5.33.69,4.52-.53,4-2.71,4.56-1.17,2.16-1.15,2.19-1.23.83-3.67-.67-1.22-1.85-.43-.19-2.74-1.3-1-3.73-.83-1.66-1.84L364.93,90l1.67-2-1.4-3.8-.91-2.11-1.29.09c-2.87.16-4.12-.56-4.68-1.28l-1.48,1.41L352.63,84l-.2-.37c-3,1.6-5.95-1.13-8-1.66a29,29,0,0,0-7-1.21c-3.87-.29-3,.29-4.1.6-.62.17-3.07,1.24-5.36,2.13l.82,1,.51,2.69-.69,2.13-2.31,2.23-3.76,2.25-4.64,1.51L319,97l-.73,5.13-2.68,3.37-2.39,1.07-2.59-3.12-.35-3.65.58-3.26,1.61-2.79-2.58-.31-4.05-.19-2-1.35L301,91.05,300,89.54l-1.89-1.21L294.17,87l-3.77.63.08-2.41.46-3-3.3-.52,1.91-3.25c-1-.89-.51-1.29-1.06-.9s-.58-.45-1.8-.61-1.18-.81-2.3-2.75,0,0-1.83,0-2.14-1.22-4.91-.84-3-.38-4.41-.85-1.69-1.21-.92-4.58-.92-1.83-4.44-2.52-.77-1.24-1-1.7-4.65-2.34-4.06-2.8-2.45-2.76-4.21-3.52-1.9,0-4.45-.48-3.42-2-6-4.89c-1.51-1.69-1.37-2.43-1-3.06l-1.8-.12-1.58.84-3.16.48L242.22,48l-4.71,1.95-.54-1c-.79,1.87-2.87-.14-2.87-.14a3.83,3.83,0,0,0-.46-.84l-.54.42-2.28.67-.42-1.19-.78.13A11.93,11.93,0,0,1,228,51.57c-1.71,2-1.84,0-2.91.43-.59.24-1.18-1-2-2.58l-1.51.42-2.64-.31a10.26,10.26,0,0,1-.11,2.48c-.45,1.51-3.21.78-4.58.69s-2.45,2.08-3.33,2.45-2.63-.37-4.77-2.45a2.69,2.69,0,0,1-.58-3.18l-1.39-.27L193.61,60.12,178.26,77.46l2.3.09,1.64.86.58,1.37.52,2.06,3.75-1.76,3.24-1v1.62L191,82l1.15,1.42-.17,2.27-.13,3.62,2.79,2-1.34,2-2.46,1.55h0l-1.08,1.67,1.49,2.35-1.26,2.62,2.37,1.39-1.62,2-.35,2.91,3.85,1.36,1,1.43,3.18,3.26h24.25a28.22,28.22,0,0,1-2.59-12c.3-8.56,9.71-11.69,13-12s2.4,3.63,2.4,3.63-1.68,3.51,1.53,3.9,4.43.3,4,1.07-3.67,2-2.6,3,3.9,1,5.28,1.85,4.05,1.36,3.36-1.69.8-6.22,1.6-5.53,2.53,1.25,2.3,4.92,2.67,5.58,3.36,7.33,5.2,2,4.2,3.29a4.27,4.27,0,0,0-.65,2.17h12.93l.56-1.27.89,0-.33,1.83.58.56,1.73.2,2.44.53,2.12,1,2.29-.43,2.87.87h0l1.58-1.32,1.69-.52.9-.81.76-.44,2.16.67,1.76.08.46.45.15,1.89,2.75.5-.82,1,.68,1-.91,1.27.95.42-.95,1.13h0l.67.1.67-.49.25.74,1.84.42,2,0,2,.34,2.15.65.51,1.05.88,2.58L304.84,129l-2-.47-.66-2.08-.36,2.12-1.88,1.88-.38,1.6-.52,1-2.09,1.12h0L295.09,136l-1,1.18,1.41.22,2.34-1.08,1.47-1,.84-.16,1.38.34.87-.52,1.45-.43,2.47-.42.07-1-.14,0-.88.18-1-.32,1.16-1.16.94-.4,2-.5,2.4-.46,1,.64,1-.74,1-.47.49.25v.05l3.45-2.35,1.38-.62,4.05,0h4.9l.51-.83.9-.17,1.28-.52,1.39-1.53,1.57-2.61,2.76-2.53.61.88,1.94-.56.88,1-1.31,4.57,1.21,1.91,3.06-.41,4.28-.11L342,129.09,341.3,132l2,.25,3.61-2.44,3-1.37,6.39-2,3.83-2.21L358.7,123Z"/><polygon class="cls-2" points="379.92 116.7 380.01 114.93 378.04 115.5 379.44 113.07 377.1 112.05 375.7 112.86 373.63 111.95 374.83 110.79 373.28 110.08 371.3 111.2 373.77 108.31 373.77 108.31 375.7 106.24 376.43 105.35 375.28 105.2 372.75 106.34 370.64 108.21 366.56 113.48 363.84 115.48 364.74 116.38 362.8 117.56 362.95 118.55 368.01 118.65 370.88 118.45 373.2 119.26 370.97 120.83 372.51 120.95 376.25 118.05 376.88 118.47 375.67 121.21 377.26 121.84 378.48 121.72 380.25 118.77 379.92 116.7"/><polygon class="cls-2" points="357.66 113.55 357.66 113.55 357.75 112.94 355.49 111.55 352.33 110.72 351.35 111 353.3 112.56 356.37 113.6 357.66 113.55"/><polygon class="cls-2" points="349.96 120.44 348.69 121.48 349.04 122.6 352.01 124.02 353.05 123.81 354.71 122.43 352.24 122.52 350.44 122.07 350.44 122.07 349.96 120.44"/></svg>