<svg id="panda" xmlns="http://www.w3.org/2000/svg" viewBox="0 0 1033.69 558.3"><defs><style>.cls-1,.cls-2{fill:#e96cff;stroke:#c436d8;stroke-linejoin:round;}.cls-1{stroke-width:0.22px;}.cls-2{stroke-width:0.15px;}</style></defs><path class="cls-1" d="M812,173.89a6.58,6.58,0,0,0-1.69,2.41c-.46,1.35.67,4.07.8,4.18s2.36,4.22,3.37,2.94,2.35-3,1.68-4.21-2.1-3.84-1.22-5,3-3.76,2.28-5.45-2-.95-2.28-.95-1.15-1.55-1.43-3-5.17-.91-3.62,1.19,3.48,2.16,2.88,4.78S812,173.89,812,173.89Z"/><path class="cls-2" d="M823.5,163.47a2.29,2.29,0,0,0-1.22.39,2.2,2.2,0,0,0-1.77-.72,1.86,1.86,0,0,0-2,1.76,1.94,1.94,0,0,0,2.15,1.62,2.21,2.21,0,0,0,1.65-.8,2.29,2.29,0,0,0,1.29.31c1,0,1.8-.64,1.76-1.35S824.51,163.44,823.5,163.47Z"/></svg>