<svg id="moon-bear" xmlns="http://www.w3.org/2000/svg" viewBox="0 0 1033.69 558.3"><defs><style>.cls-1{fill:none;}.cls-1,.cls-2{stroke:#483737;stroke-linejoin:round;stroke-width:0.5px;}.cls-2{fill:#9f55ff;}</style></defs><path id="AF" class="cls-1" d="M725,153.08h-2.84l-2-.25-1.35,1.53-1.15.34-.79.72-1.35-1.12-.41-2.88-.87-.16.05-1-1.67-.78-.9,1.19,0,1.38-.31.5-1.66-.07-.54,1.57-1.07-.66-1.76,1.1-.93-.42-2.24-.72-1.53,0-.86-.1-1.49-.92-.17,1.22-2.19.66v2.75l-1.35,1-2.09.52-.27,1.55-2,.46-3.07-1.3-.36,4.27-.32,2.51,1.3.5-.87,1.88,1.37,2.75.58,2.18,2.23.58.58,2.22-2.07,3.12,5,1.75,2.75-.51,1.76.44.46-.76,2,.31,3.44-1.44-.39-2.92,1.23-1.95h2.09l.14-1,2.07-.45,1.1.33.92-1-.55-2.07.79-2.07,1.61-.87-1.55-2.28,2.67.11.51-1.24-.39-1.32,1.08-1.44-.69-1.71-1-1.45,1.28-1.49,2.8-.72,3.07-.4,1.26-.63,1.51-.39-.73-1Z"/><path id="BD" class="cls-1" d="M786,205.94l-2.46-5.45h-.79l-.08,2.2-1.89-1.78.54-2,1.25-.2.78-2.91-1.77-.59-2.64.05-2.82-.47-.7-2.39-1.4-.17-2.55-1.48-.57,2.33,2.41,1.82-1.56,1.28-.41,1.25,1.93.93-.13,2.07,1.44,2.58.91,2.83,1.17.31.87.37.32-.62,1.34.69.6-1.91-.5-1.41,2.67.13,1.54,2,.83,1.66.45,1.75,1.1,1.79-.62-2.77,1.09.52Z"/><path id="BT" class="cls-1" d="M779.46,186.24l-1.45-.93-1.52-.08-2.2-.8-1.35.87-1.36,2.56.2.69,2.86,1.31,1.68-.54,2.46.23,2.3-.1-.23-2.12-1.39-1.09Z"/><path id="CN" class="cls-1" d="M839.07,217.49l.34-2,1-1.51-.88-1.31-1.68-.08-3,1-1.16,1.56.58,2.95,2.56,1.07,2.24-1.65Zm10.25-106.11-2.88-3.23-2.12-2-1.83-1.42-3.62-3.29-3-1.2-4.4-1-3.3.09-2.79.58-1.12,1.62,1.86.78,1.11,1.81-.81,1.05-.33,3.48.84,1.46-2.5,2.09L820.65,111l.07,2.5-.12,3.32,1.37,1.36,1.27-.42,2.85.52,1.38-1.23,2.65,1.06,3.59,2.34.32,1.19-2.27-.38-3.61.45-1.38,1-.86,2.22-3.43,1.31-1.82,1.78-3-.68L816,127l-.42,2.17,1.43,1.3.92,1.12-1.38,1.13-1.16,1.82-2.64,1.19-4,.13L804.86,137l-2.43,1.82-1.6-1.05h-3.27l-4.78-2.06-2.85-.51-3.4.47-5.84-.76-2.94.08-2.31-2-2.39-3.12-1.79-.37-4-2.11-3.76-.47-3.37-.57-1.5-1.46-.48-3.92-2.87-2.7L751,117l-2.89-1.77-1.6-2.31-.91.27-1.12,2.21-2,.31,1.13,3.35-.9,1.51-5.62-1.1.2,6-1.11.75-4.82,1.35,4.27,5.87-1.57.88.8,1.94-.15.76L731,138.87l-.57,1.35-3.37.4-.43,2.18-3-.46-1.7.67-2.17,1.61.58.8-.58.78,1.48,3.16.82-.34,1.86.78.23,1.33.89,2,.73,1,2.42,1.6,1.45,2.63,4.88,1.39,3.93,4,.36,2.8,1.5,1.76.29,1.75-2.11-.46,1.59,3.79,3.22,2.18,4.42,2.41,1-.83,2.49,1.06,3.32,2.24,1.69.5,1.29,1.65,2.34.68,2.61,1.51,3.37.79,3.39.34,1.58-.73.8,2.71,1.35-2.56,1.35-.87,2.2.8,1.52.08,1.45.93,2.2-.43,2-2.56,2.77-2.19,2.58.84,1.68-1.45,1.83,2.14-.63,1.45,3.18.51,1.61-.26,1.41,2,1.43.82.67,2.63.49,2.84-2.12,2.87.46,4.08L802,199l1.3,3.17,1.94.66-.31,2.86,2.37,1.29,1.37.63,1.93-1,.35,1.42.4.8,1.55.1L811.72,205l1.4-.5,1.39-.84h2.3l2.72-.39,2.09-1.83,1.65,1.29,2.76.62-.07,2,1.64,1.4,3.08.89,1.26-.56,4.08,1.1-.43,1.33,1.22,2.49,1.57-.2.3-3.63,3-.52,3.69-1.72,1.27-1.71,1.23,1.11,1.45-1.52,3.16-.4,3.36-2.89,3.21-3.17,1.64-4.11,1.13-4.51,1.05-3.73,1.5-.31-.07-2.72-.41-2.8-2-1.07-1.24-1.84,1.47-.94-.77-2.55-2.78-2.64L855.78,167l-2.27-3.39-3.66-1.88.56-2.41,2.05-1.72.6-1.85,3.53-1L855.44,153l-1.81-.09-3-1.33L848.53,154,846,153l-.68-1.54-2.47-.56-2.36-2.31.76-1.6,2.62-.16.77-2.21,2.06-2.37,1.85-1.2,2.21,1.79-1.18,2.29,1.13,1.33-.79,1.58,2.56-.93,1.33-1.6,3.39-1,1.25-2.19,2.17-1.83.74-2.41,1.78,1.06,2.4.13-1.27-1.79,3.46-1.47.13-1.9,2.73,2h0l-.87-1.72,1.33-.09-1.66-4-2.21-2.89,1.64-1.19,3.55.6,0-3.28-1.19-3.67.31-1.22-.41-3-3.73,1-1.5,1.31h-4l-2.87-3.13-4.48-2.36-5.14-1.06Z"/><path id="IN" class="cls-1" d="M747.71,177.94l-4.42-2.41-3.22-2.18-1.59-3.79,2.11.46-.29-1.75-1.5-1.76-.36-2.8-3.93-4-2,2.89-3,.51-4.41-.84-1,1.48,1.63,3,1.46,2.33,2.61,1.7-2,2,.53,2.45-2.09,3.45-1.14,3.49-2.36,3.61-3.34-.26-2.56,3.6,2.1,1.55.73,2.65L721.5,195l1,2.95h-6.31l-1.61,2.3,3.76,2.92,1,1.34-1.23,1.25,4.28,4.16,2.09.41,4-2.06,1,3.22.48,4.16,1.35,4.39,1.88,6.64,3.09,4.71.69,2.14,1.07,4.28,1.8,3.29,1.14,1.62,1.35,3.45,1.65,4.79,3,3.19,1.13-1,.87-2.33,2.62-1-1-1.12,1.17-2.61,1.51-.17-.4-5.81,1-3.25-.4-2.84-1-4.46L753,227l1.35-.18,2.5-1.23,1.36-.85-.17-1.57,2.64-2.25,1.92-2.16,2.72-4,3.86-2.31,1.25-2-.56-2.58,3.45-.72,2,.05.21-1.26-.91-2.83-1.44-2.58.13-2.07-1.93-.93.41-1.25,1.56-1.28-2.41-1.82.57-2.33,2.55,1.48,1.4.17.7,2.39,2.82.47,2.64-.05,1.77.59-.78,2.91-1.25.2-.54,2,1.89,1.78.08-2.2h.79l2.46,5.45,1.29-.81-.56-1.46.45-1.17-.53-3.56,2.39.78.75-2.83-.18-1.68,1-2.88-.5-2,3.19-2.38,2.17.62-.7-2.11.85-.64-.51-1.3-3.18-.51.63-1.45-1.83-2.14L789,181.9l-2.58-.84-2.77,2.19-2,2.56-2.2.43,1.39,1.09.23,2.12-2.3.1-2.46-.23-1.68.54-2.86-1.31-.2-.69-.79-2.71-1.58.73.08,1.48.81,2.18-.07,1.37-2.36.05-3.59-.8-2.27-.33-2-1.75-4-.44-4.08-1.93-3-1.69-3-1.3.46-3.22,1.48-1.56Z"/><path id="IR" class="cls-1" d="M643,148.1l-1.62-1.58-.63-1.28-1.72,1,1.44,3.92-.38,1.06,1.9,2.74h0l2.37,4.09,2,1,.49,2-1.24,1.18-.29,2.68,2.36,3.27,3.68,1.89,1.78,2.61-.14,2.49h.9l.25,1.83,1.78,1.81.89-1.34,1.94,1.14,1.45-.56,2.66,4.59,2.29,3.26,2.86,1,3.19,2.65,3.63,1.14,2.67-1.67,2.11-.61L681,189l1.74,4.22,3.28.44,3.22.79,5.52,1,.56-4,3.87-1.78-.46-1.59-1.44-.55-.52-3L693.85,183,692.4,181l-1.67-1.81L692.8,176l-.58-2.22-2.23-.58-.58-2.18L688,168.31l.87-1.88-1.3-.51.32-2.5.36-4.27-.79-2.89-2.09-.12-3.73-3-2.27-.37L676,151l-2-.31-1.09.63-1.85-.1-1.61,2-2.3.67-.13.8-4.16.9-4-.59-2.19-1.72-2.72-.71L652.68,150l-.66.17-2-1.79.66-1.7-1-1-1,.25-2.82,2.53-1,.1-2-.46Z"/><path id="JP" class="cls-1" d="M893.94,164.3l-2.34-.74L891,165l-1.74-.39-.77,2,.59,1.63,2.19,1v-2l1.13-.79,1.57,1.1.78-2.08-.82-1.18ZM907.19,154l-1.67-3.53.9-3.45-1.28-2.77-3.87-4.72-2.56.62-.07,2.16,2.35,3.83.25,4.18-1,1.33-2.51,3.43-2.56-1.64-.29,6.1-3.26-.7-5.1,1-1.11,2.35L883.35,164l-.65,2.16-2.25,1.06,2,2.36,2.13,1,.39,3.1,1.82,1.34,1.33-1.45-.23-5.85-3.78-2.52,3.24-.07,2.68-1.62,4.54-.76,1.13,2.57,2.39,1.32,2.42-3.92,4.81-.21,2.88-1.62.41-2.42-1.23-1.71-.18-2.74ZM903,130.08l-2.7-1.14-5.15-3.51.73,2.63,1.83,4.67-2.76.19.06,2.61,2.14,3.38,3,0-.5-3.72,5.48,2.32.54-3.37,3.46-.93-2.76-3.79-1.06,1.43-2.29-.72Z"/><path id="KH" class="cls-1" d="M832.68,232.83l-2.75-1.26-1,2.36-2.58-1.34-2.8-.49-3.7.65-1.55,2.85,1.13,4.13,1.82,3.54,1.36,1.78,2.5.5,2.42-1.38,3.06-.25-1.49-2.07,4.66-2.63-.1-4.11-1-2.28Z"/><path id="KR" class="cls-1" d="M865.54,152l3.08,2.93-1.82.58,2.63,3.57.46,2.57,1,1.87,2.39-.29,1.69-1.43,2.26-.66.31-1.88-1.61-4-1.6-2.22-4.09-4,0,.82-1.07.23-1.87.17-.42,1.54-1.28-.12,0,.31Z"/><path id="MM" class="cls-1" d="M810.9,208l-.34-1.42-1.94,1-1.36-.63-2.37-1.29.31-2.86-1.94-.66L802,199l-2.92.57-.46-4.08,2.12-2.87-.5-2.84-.66-2.63-1.43-.82-1.42-2-1.6.26.51,1.3-.85.64.7,2.11-2.17-.62-3.19,2.38.5,2-1,2.88.18,1.68-.75,2.83-2.39-.78.53,3.56-.45,1.17.56,1.46-1.29.81.35,2.46-1.09-.52.62,2.77,2.49,2.8,1.76.44-.17,1.23,2.84,4,1.05,3.21-.47,4.25,1.91.8,1.67.31,3-2.44,1.7-1.72,1.63,2.84,1.05,4.32,1.42,4.1,1.38,1.78.13,3.73,1.17,2-.67,2.62.49,2.54,1.13-3.51,1.32-3.19-1.45-3.12-.12-1.6-.54-1.91-2.26-2.72-.9-1.72.93-.63.7-3-1.5-2.26-2.19-2.5-1.83-3,1.13-.63.76-3.71,2-.15,1.45-1.49,1.53-.79.4-1.27L810.9,208Z"/><path id="NP" class="cls-1" d="M769.21,185.88l-3.39-.34-3.37-.79-2.61-1.51-2.34-.68-1.29-1.65-1.7-.5-3.31-2.24-2.49-1.06-1,.83-1.48,1.56-.46,3.22,3,1.3,3,1.69,4.08,1.93,4,.44,2,1.75,2.27.33,3.59.8,2.36-.05.07-1.37-.81-2.18-.08-1.48Z"/><path id="PK" class="cls-1" d="M734.51,159.68l-4.88-1.39-1.45-2.63-2.42-1.6-1.51.39-1.26.63-3.07.4-2.8.72-1.28,1.49,1,1.45.69,1.71-1.08,1.44.39,1.32-.51,1.24-2.67-.11,1.55,2.28-1.61.87-.79,2.07.55,2.07-.92,1-1.1-.32-2.07.45-.14,1H707L705.78,176l.39,2.92-3.44,1.44-2-.31-.46.76-1.76-.44-2.75.51-5-1.75L692.4,181l1.45,2.07,2.94,1.52.52,3,1.44.55.46,1.59-3.87,1.78-.56,4,4-.48,4.65-.06,5.19-.65,2.57,2.62,1.19,2.47,2.22.87,1.61-2.3h6.31l-1-2.95-1.87-1.74-.73-2.65-2.1-1.55,2.56-3.6,3.34.26,2.36-3.61,1.14-3.49,2.09-3.45-.53-2.45,2-2-2.61-1.7-1.46-2.33-1.63-3,1-1.48,4.41.84,3-.51,2-2.89Z"/><path id="KP" class="cls-1" d="M870.55,136.1h0l-2.73-2-.13,1.9-3.46,1.46,1.27,1.8-2.4-.13-1.78-1.06-.74,2.41-2.17,1.83-1.25,2.19,1.68.92,1.75.37.42.56.1,1.84.51.62-.48.4-.13,1.51,1,.55.85.31.36.64.69-.28.06-.64,1.61.65,0-.31,1.28.12.42-1.54,1.87-.17,1.07-.23,0-.82-2.2-1.5-1.33-.56.16-.38-.57-1.47.78-.92,1.56-.56.56-1,.21-.6,1.05-.75-1.25-2.45.25-1.16.61-1.15,1.13.21h0l-.67-.6Z"/><path id="RU" class="cls-1" d="M888.57,108.12l-3.35-3.31-2.2-3.22-3.14-3.14-2.23-2.14-.78.45,2.1,1.51-1.26,1.49,2.91,4.46,3.71,3.23,2.82,4.41,1,2.51,2.57,3.59,1.7,3.26,2.17,2.82.18-2.6,3.22,2-1.35-2.34L892,117.69l-1.47-4.8,4.57,1.09-6.52-5.86ZM575.8,96.43l-.3-.82.17-.88-1.17-.51-2.69-.57-3.34,1L568,96.12l3.14.36,4.62,0Zm-458.38-38,2.37-1.84-2.43-2.92-2.75-2.22-14.3,11.76,2.81-1.27.62-1.4,3.6-.71-1.82,1.11,0,1,3.09-.39,1.78.49-1,1.3,2.09.88.6,1,2.09.09,1.63-.63,3.35-2.93,4.14-.31,3.75-1.3-1.32-2.78L120.1,57l-2,2.15-.69-.73ZM915.6,46.05,913,44.1l-1.23,1.19,1.57.9Zm-790.95-.18,3.16-.68.69-.39L126.4,44h-1.85l-.44.11-2.57,1.95,3.11-.18Zm703.44-6.52L827,38.62l-4.23-1-2.39.25-.84,1.1.54.14,4.75.31,3.25,0Zm9.19-5.12-6.18-.71-4.42-.4.55.87,5.23,1.06,3.68.25Zm-13.5-1.29-9.3-1.42-5.66-.11-2.17.5,1,1.84,6.19,1.76,2.79-.64,7.9.07-.74-2ZM645.61,46.36,640.44,44,639,41.7,641.25,39l2-2.69,5.32-2.58,5.75-1.28L661,31.15l.91-.82-2.07-1-3.83.34-3,1-6.68.49-6,1.71-4,1.42,1.14,1.23-4.06,2.41,2.11.33-3.29,2.37.68,1.52-2,.61.91,1.52L636,45l1.08,1.26,7.36.37,1.2-.25ZM740.14,29.2l-5.07-.4,2.2-.64-4.34-.83-3.85,1.06-1,1.11.44,1.13-3.87,0L721.18,32,719,31.4l-5.29.25-.12.73-5.27.35-3.1,1.33-2.38.08-1.19,1.78,2.72,1.43-4.39.36-5.24-.12-3.37.56,2.06,3,3.37,2.34-5-1.6-4.43.15-3,1.1,2.16,2-2.64-.52-.68-2.72-2-1.55-1,.07,1.63,2-2.86,1.9L683,46.62l-.24,2.88,1.38,1.61,2.57.23,0,1.93,2.17,1.66-1.25,1.4.12,1.46-2.14.76-.4,1.07-2.84-.44L684.75,55l0-2-3.39-1.79-1.54-4-1.77-2-1.85-.9.84-2.29-1.32-1.56-6.12-.73-1.32.55-.09,2.54-2.76,2.57.51.91,2.27,2.23L668.1,50l2.83.28.37.62,3,1.53L673.54,54l-9.71-3.33-3.5-.9-7-.87-.75,1,3.06,1.68-1.74,1.92-3.3-1.75-2.85,1.21-4.19.08-1.24,1-2.92-.3L641,51.87l-1.75-.14-7,2.5L628,55.63l0,1.88-3.33.64-2.11-1-.53-1.64,2.76-.36L623,53.5l-6.6-.94,2.21,1.81-.59,1.76,2.43,1.76-.73,2-2.45-1-2.17-.17-4.58,2.91,2.14,2.2-1.77.73-6.09-1.87-1.21,1.14,1.71,1.29,0,1.47-2-.79-3.22-.92-.84-3.07-.47-1.38-4.24-2.18,1.6-.37L607,60.13l3.55-.79,2.13-1.56-.7-2-2.13-1.39-9.4-3.3-6.3-.69-4.08-1.74-2.07,1h0l-3.56,1.16-1.75.27.08,2,3.85,2L585,57.33l3.34,3.38-1.06,2.56,2.53,2.25-.58,2,3.9,2.08-.59,1.56-1.88,1.78-4.43,3.94h0L589,78.33l-2.46,1.73h0l.45.54-1.44,1.81,1.19,2.94-.9,1,1.3.73.44,1.54,1.09,1.88,2.74.81.48.79,1.25-.38,2.56.76.5,1.51-.4.87L597.68,97l1.12.59,0,.58,1.79.57.88.87-.87.71-2.07-.11-.44.3.77,1.08,1,2.09h0l1,.14.52-.75.8.17,2.6-.32,1.94,1.85-.53.67.38,1,2.08.16,1.15,1.42.05.65,3.48,1.16,1.89-.52,1.86,1.55,1.51,0,4,1.08.2,1-.74,1.74.9,1.84-.21,1.11-2.49.24-1.2.93.16,1.49,2.27-.54.2.73-3.66,1.37,1.69,1.33-1.76,2.81-1.85.54,2.59,2,3.24,1.27,3.85,2.86.27-.4,2.35.58,4,.54,3.93,1.63.57.63,1.55-.53,2.63.71,1.06,1.39,1.83.79.78.11,2.22,2.07,1.24.23.31-.86,1.37-1.37h0l-3.66-4-.16-2.28-3-3.21,2-3.48,2.46-.55.8-2-1.45-.54-.1-1.72-2.14-2.23-1.92.09-2.69-2.26,1-2.52-.9-.68,1.27-3.63,3.09,1.91-.23-2.41,4.45-3.58,4-.08,6.24,2.27,3.4,1.34,2.36-1.39,4.06-.07,3.77,1.71.47-1,3.66.14.19-1.56-4.82-2.25,2-1.6-.75-.89,2.18-.84-2.52-2.23.81-1.11,9.07-1.12,1-.8,5.87-1.19L691.23,93l4.76.69,2,3.34,2.34-.78,3.65,1.1.45,1.77,2.36-.19,5.14-3-.52,1,4.21,2.51,8.92,8.31.71-1.73,4.28,1.9,3.36-.85,1.66.59,2,1.91,2.06.64,1.66,1.41,3.16-.45,2.19,2,.91-.27,2.5-.58,3.76-2.85,3.25-1.55,2.69,1,2.71,0,2.41,1.54,2.63.12,4.12.84,1.46-2.31-1.94-1.94,1-3.4,3.52,1.36,2.51.38,3.43.85,1.69,2.46,4.34,1.39,2.14-.61,3.06-.43,2.8.43,3.33,1.59,2.41,1.69,2.39,0,3.55.54,2-.82,3.14-.55,2.56-2.33,1.74.36,2,1.1,2.94-.27,3.79,1.25,2.5-2.09-.83-1.46.32-3.48.81-1.05-1.11-1.81-1.86-.78,1.12-1.62,2.79-.58,3.3-.09,4.4,1,3,1.2,3.62,3.29,1.83,1.42,2.12,2,2.88,3.23,5.14,1.06,4.48,2.36,2.87,3.13h4l1.5-1.31,3.73-1,.41,3-.31,1.22,1.19,3.67,0,3.28-3.55-.6-1.65,1.19,2.22,2.89,1.66,4-1.33.09.87,1.72h0l.67.6h0l-.14-1.13,2.36-2.48,2.53,1.64,1.67,0,2.55-2,.68-2,1.46-3.89,1.37-3.92-.48-2.32,1-4.83-2.21-5.3-2.4-3.94-.24-3.27-2-2.78-6.21-3.57-2.91-.21-.46,1.62-3-.72-2.67-2-4.25-.4,4-7.56,3.06-6.16,7.22-.93L880,81l1.67-1.54,4.19.48,1.81,2.26,3.49-.32,4.71-.82-3.73-1.92,1.2-5.2,5.16-1,5.62,3.8,2.78-3.4-1.1-2.53,2.62-.26,2.43,4.34L909,77.35l-1.14,3.21-.75,4-3.19.71,1.17,1.48-.44,1.89L907.15,93l7.19,7.18,4.77,4.77,2.66,2.26,1.37-3-1.84-3.32,3.15-.8-2.15-3.7,3-1.65-2.23-1.38-1.26-2.69,2.21-.11-3.83-4.64-3.44-.71-1.26-1.27.09-3.05-1.17-2,3.65.43,1-1.34,2.23,1.16,3.87-2.44,5.61,2.15-.53-1.42,1.54-1.9,1.4-2.17,1.74-.36,4.14-2.31,5.16.67-.29-.81-1.68-1.27-2-.82L936,65.9l-3.94-1.6,3.28.22,1.46-1.32v0l-14.3-11.76-4.73-1.26-8.15-1.38-4.42.17-8.09-.8.57,1.28,4,1.84-1.68.93-7-2.57-3.86.32-4.87-.57-3.87.08-2.31.59-3.69-.82-2.14-2.1L869.16,46l-4.93-.47L856,46l-8.18-2.17L844,42.18l-21.6-1.82-1.57,1.21,4.31,2.61-4-.39-.81.79-5.12-.87-3,.76L807.5,43.2l.78,3L803.71,45l-4.88-2.23.14-1.17-2.76-1.79-4.93-1.46-3.41,0-5-.48L784.75,40l-9.41-.41-1.73-1.3-7.3-.45-3,.43L763,39l-2.67-1.77-1.47.52-3.78-.69-3-.38.88-.82,4.21-1.5,1.59-.8-.81-1.39-2.65-1-6-1.28-6.11,0-1.29.64-1.79-1.3Zm-7.26-3.42-.44-1-6.61-1.41-1.68-.16-1.37.28-.47,3.3ZM620,20.29l.55-.36-3.23-.51-1.64.38-.82.56-.76-.63-3,0-3.64.43,4.45.07-.74.74,2.45.57,2.12-.4.07-.39,1.69-.18,2.49-.31Zm101,4-1.77-2.21-7.11-2.3L707,18.65l-3.67.52-3.44,1.6,3.19.48L706.29,23l4.26.95,6.33.72,4.11-.32Z"/><path id="TH" class="cls-1" d="M826.32,232.59l.76-1.55-.24-2.9-2.77-3-.67-3.39L820.77,219l-2.24-.24-.4,1.19-1.69.1-1-.6-2.77,2.05-.52-3.08.15-3.61-2-.16-.5-2.06-1.43-1.06-1.53.79-1.45,1.49-2,.15-.76,3.71-1.13.63,1.83,3,2.19,2.5,1.5,2.26-.7,3-.93.63.9,1.72,2.26,2.72.54,1.92.12,1.59,1.45,3.12-1.32,3.19-1.13,3.51-.62,3.28-.18,2.14.68,1.89.36-2,1.53,1.62,1.68,1.93.6,1.69,1.23,1.31.48-.61,2.49,1.5.31,1.75,1.93-.41.89-1.4L818,258.36l-1.8-.4-1.76-2-.72-3-1.41-3.12-1.92-.11-.39-2.47.7-3,1.12-5-.16-3.77,2.58,0-.14,2.69,2.5-.06,2.79,1.57-1.13-4.13,1.55-2.85,3.7-.65,2.8.49Z"/><path id="TW" class="cls-1" d="M867.66,203.37l.43-5.52,0-2.07-1.56-1-1.65,2.61-.89,3.37.92,2.55,2.16,2.9.61-2.82Z"/><path id="VN" class="cls-1" d="M830.68,207.62l-3.08-.89-1.64-1.4.07-2-2.76-.62-1.65-1.29-2.09,1.83-2.72.39h-2.3l-1.39.84,2.19,2.71,1.85,3.12,3.57,0,1.64,3-1.7.9-.63,1.23,3.81,2.06,3,4.05,2.28,3,2.54,2.38,1.06,2.42-.09,3.43,1,2.28.1,4.11-4.66,2.63,1.49,2.07-3.06.25-2.42,1.38,2.35,1.94-.64,2.32L828,252l3.42-3.18L833.6,246l3.16-2.21,2.22-2.25-.27-6-2.14-6.34-2.15-2.75-2.95-2.12-3.39-4.48-2.8-3.62.24-2.38,1.84-3.24,3.32-2.94Z"/><path id="KH-2" data-name="KH" class="cls-2" d="M832.68,232.83l-2.75-1.26-1,2.36-2.58-1.34-2.8-.49-3.7.65-1.55,2.85,1.13,4.13,1.82,3.54,1.36,1.78,2.5.5,2.42-1.38,3.06-.25-1.49-2.07,4.66-2.63-.1-4.11-1-2.28Z"/><path id="BT-2" data-name="BT" class="cls-2" d="M779.46,186.24l-1.45-.93-1.52-.08-2.2-.8-1.35.87-1.36,2.56.2.69,2.86,1.31,1.68-.54,2.46.23,2.3-.1-.23-2.12-1.39-1.09Z"/><path class="cls-2" d="M692.8,188.92c-.29.23-1.17,1.14-2.1.11s-4.38-2.06-4.38-2.06-5.16-1.61-2.18-1.72a15.73,15.73,0,0,1,6.06,1.25s-2.16-2.37-4-2.9-4.8,1.1-6,0-4.53-1-4.9-.53a5.79,5.79,0,0,1-1.3,1c-.46.86-.11,2.68.8,2.46s2.07-.78,3.21,0,2.17-.24,3,1,.86,3,2.47,3.46,2.16,1.37,2.43,0,.73-2.05,2.25-1.36a27.06,27.06,0,0,0,4.5,1.84c.56,0,1.35-.59,2-.64a3.17,3.17,0,0,1,1.27.37l1.28-.59-.48-.4S693.08,188.69,692.8,188.92Z"/><path class="cls-2" d="M718.31,166.4c-.13-.17-1.07-1.09-1.87-1.88l-.14.33-2.67-.11,1.27,1.87C717.1,166.73,718.47,166.62,718.31,166.4Z"/><path class="cls-2" d="M717.5,160.85l-.79,1.06.68.24a81.2,81.2,0,0,1,7.89,3.82l-1.22-2.25,1-1.48,3.23.61c-2.3-.95-4.8-2.08-4.87-2.5-.11-.78,2.84-1.46,1.54-1.75s-3.58-1.44-5.25-.87a20.81,20.81,0,0,1-3.36.79l.42.62Z"/><path class="cls-2" d="M703.74,190.8c0-.62-2.17-3.85-3.72-4.3-.69-.2-1.92-.61-3.07-1l.36,2.09,1.44.55.46,1.59-1.47.68C699.9,190.73,703.74,191.25,703.74,190.8Z"/><path class="cls-2" d="M745.94,181.5l.29-2,1.48-1.56h0l-4.42-2.41-3.22-2.18-.28-.68a3.24,3.24,0,0,1-2-.49c-.65-.38,1.05-2.64-.67-4.24a24.76,24.76,0,0,0-4.86-3.42,43.89,43.89,0,0,0-7.18-2.23l-1,1.43,1.4,2.59a16.58,16.58,0,0,1,2.87,1.63,5.66,5.66,0,0,1,1.29,2.73l.14.09-.1.09c.15.63.22,1.1.22,1.1a61.47,61.47,0,0,1,5.39,3.21c1.15.92,2.48,5.93,5.83,5.74A18.76,18.76,0,0,1,745.94,181.5Z"/><path class="cls-2" d="M795.09,184.55l-3.18-.51.63-1.45-1.83-2.14L789,181.9l-2.58-.84-2.77,2.19-2,2.56-2.2.43,1.39,1.09.23,2.12-2.3.1-2.46-.23-1.68.54-2.86-1.31-.2-.69-.79-2.71-1.58.73.08,1.48.81,2.18v.12a6.85,6.85,0,0,0,.81.2c1.63.2,8.28,1.5,9.09,1.14s5.25-2,5.25-2,3.12-1.59,3.12-.79-3.56,2.94-4.13,2.56a1.75,1.75,0,0,0-1.83.26c-.38.29-4.65,1.76-6,1.64-.35,0-.37.84-.19,2.15l2.76.46,2.64-.05,1.77.59-.78,2.91-1.25.2-.54,2,1.89,1.78.08-2.2h.79l2.46,5.45,1.29-.81-.56-1.46.45-1.17-.53-3.56,2.39.78.75-2.83-.18-1.68,1-2.88-.5-2,3.19-2.38,2.17.62-.7-2.11.85-.64Z"/><path class="cls-2" d="M746.23,179.5l-.34,2.35,3.26,1.33,1.92,1.11c1,.56,1.52,1.09,2.55.91s3.44,1.94,3.44,1.94.43-.77,1.6.08,4.13,1,4.13,1a18,18,0,0,0,2.52,1.62,33,33,0,0,0,4.72.55h0l0-.87-.81-2.18-.08-1.48h0l-3.39-.34-3.37-.79-2.61-1.51-2.34-.68-1.29-1.65-1.7-.5-.6-.41-.52.09-3.09-.92-2.47-1.33-.12.1Z"/><path class="cls-2" d="M786.33,208.4l-.35-2.46-2.46-5.45h-.79l-.08,2.2-1.89-1.78.54-2,1.25-.2.78-2.91-1.77-.59-2.64.05-2.82-.47.79,2L779.4,198a7.62,7.62,0,0,1,.59,2.3c0,.91-1.94,1.49-.22,4.46l-.5-1.41,2.67.13,1.54,2,.83,1.66.45,1.75,1.1,1.79-.62-2.77Z"/><g id="Layer_15" data-name="Layer 15"><path class="cls-2" d="M792.75,218.73l1,3.21-.47,4.25.37.16a33.48,33.48,0,0,0,1.4-3.85s.58-3.76,0-4.8-5.6-5.56-4.85-8.8,1.51-4.2,1.51-4.2l2.6-5.16L798,203.3l4.41,2.9L806.3,208l2-.82-1.11-.51-2.37-1.29.32-2.86-1.95-.66-1.29-3.17-2.93.57-.46-4.08,2.12-2.87-.49-2.83-.67-2.64-1.43-.82-1.41-2-1.61.25.52,1.31-.86.63.7,2.11-2.17-.62L790.06,190l.5,2-1,2.88.18,1.68-.75,2.83-2.39-.78.53,3.56-.44,1.17.55,1.46-1.29.81.35,2.47-1.09-.52.63,2.76,2.48,2.8,1.76.44-.17,1.24Z"/><polygon class="cls-2" points="808.4 211.17 808.8 209.9 809.57 209.08 808.41 208.57 806.3 210.2 802.45 210.2 805.42 213.45 806.87 211.96 808.4 211.17"/><path class="cls-2" d="M809.1,235.68l-.54-1.91L806.3,231l-.9-1.71.93-.64.7-3-1.5-2.26-2.19-2.5-1.83-3,1.13-.63.43-2.1-.62.31s-2.59-4.19-3.05-4.35-2.2,1.43-2.2,1.43-.52-.19,0,1.4a8.63,8.63,0,0,1,.52,3.25c0,.94-1.65,4.21-.52,5.25.64.59,1.68,1.71,2.47,2.57l.25-.21,1.7-1.72,1.63,2.84,1.06,4.33,1.41,4.1,1.38,1.77.13,3.73,1.18,2-.68,2.62.49,2.54,1.14-3.51,1.32-3.19-1.46-3.12Z"/></g><g id="Layer_16" data-name="Layer 16"><path class="cls-2" d="M815.63,203.31h-1.15l-1.39.84,1.25,1.54A22.36,22.36,0,0,0,815.63,203.31Z"/><path class="cls-2" d="M820,215.12l3.81,2.06,3,4,2.28,3,2.54,2.39,1.07,2.42-.1,3.42,1,2.29.1,4.1L829,241.5l1.49,2.07-3.06.25-2.42,1.38,1.91,1.58c3.74-1.86,3.75-2.09,5.84-1.68.4.07.82.14,1.25.19l2-1.42h-2.41l1.87-4.17.86-.5,2.29,2.24.27-.28-.08-2-.49-.55s-2.6-2.22-2.6-4.76v-4.71a8.64,8.64,0,0,0-.13-1.47l-1.26-1.61-2.7-1.94a8.66,8.66,0,0,1-1,.19l-1.2-1.8.43-.57-1.88-2.48-1.68-2.16c-1.75.05-1.77-.79-1.77-.79l-1.35-3.5s.46-5.66-.51-8.4a3.76,3.76,0,0,1,0-2.57l-1.2-.94-.65.57a2.94,2.94,0,0,0-.14,2.44c.77,1.1.7,1.58,1.18,2.1s-2.06,3.28-2.06,3.28l-1.26.5,2,0,1.64,3-1.7.9Z"/><polygon class="cls-2" points="816.18 208.37 817.13 209.97 817.77 209.97 816.18 208.37"/><path class="cls-2" d="M826.81,227.8l-.84-.91-.37,3-5.26,1.5H814l3.34,4s-1.26-.63-1.17,0a4.32,4.32,0,0,0,.38,2.41l2.79,1.57-1.13-4.13,1.55-2.85,3.7-.65,2.8.49.76-1.54Z"/><path class="cls-2" d="M816.18,257.61l-1.76-2-.71-3-1.42-3.12-1.92-.1L810,247l.7-3,1.12-5,0-1.19c-.8-2.45-1.83-5.56-2-5.92-.34-.6-.12-5.61-.12-5.61s-1-4.35-1.25-4.75.54-4.87,1.23-3.4,1.27,4.67,2.13,4.9,3.81.75,3.48-.5a16.35,16.35,0,0,1-.3-3l-2.19,1.62-.53-3.08.16-3.61-2-.16-.5-2.06-1.43-1.06-1.53.79-1.45,1.49-2,.15-.76,3.71-1.13.63,1.83,3,2.19,2.5,1.5,2.26-.7,3-.93.64.9,1.71,2.26,2.73.54,1.91.12,1.59,1.46,3.12-1.32,3.19-1.14,3.51-.62,3.28-.17,2.14.68,1.9.35-2L810,254l1.68,1.93.6,1.69,1.24,1.31.48-.61,2.48,1.5.32,1.75,1.92-.4.9-1.41L818,258Z"/><polygon class="cls-2" points="826.29 232.24 826.29 232.24 826.29 232.24 826.29 232.24"/></g><g id="Layer_17" data-name="Layer 17"><path class="cls-2" d="M812,208.77l0,.08,1.44,1.85s.79-.46.07-2.9a1.87,1.87,0,0,1,.52-2.25l-.93-1.16-1.4.51,1.14,3.93Z"/><path class="cls-2" d="M815.18,209.94c-.11,2.14,1.65,1.56,1.65,1.56a47.14,47.14,0,0,1,4.77.5c.06,0,.07.05.1.07l-1-1.82-3.57,0-1.41-2.37A5.68,5.68,0,0,0,815.18,209.94Z"/><path class="cls-2" d="M831.69,226.89l-2.54-2.38-2.28-3-3-4.06-3.8-2.05.63-1.23,1.7-.9-.6-1.09c0,.32-1,.84-1,.84a9.18,9.18,0,0,1-4,1c-2-.06-1.38.83-2.55,1.69s-1.18,5-1.18,5l-.37.68,2.73-2,1,.6,1.69-.1.4-1.19,2.24.24,2.63,2.78a6.59,6.59,0,0,1,2.6,2.61c.33.57,2.12-1.28-.38,1.51l-.43.47,1.65,1.78.24,2.9-.76,1.55,2.57,1.34,1-2.36,2.75,1.26h0l.09-3.43Z"/><path class="cls-2" d="M810.9,210.3a4.37,4.37,0,0,0-.82-1.5l-1.27,1.36-.4,1.27,1.43,1,.41,1.71C810.24,213.32,811.4,212,810.9,210.3Z"/></g><polygon class="cls-2" points="739.8 172.71 740.08 173.35 740.67 173.76 739.8 172.71"/><polygon class="cls-2" points="839.32 216.05 836.3 213.1 834.86 213.56 833.7 215.12 834.28 218.07 836.84 219.13 839.08 217.49 839.08 217.49 839.32 216.05"/><path class="cls-2" d="M860.24,124c-1.37,5.28-6,2.76-6,2.76s-2.06-.48-3.44,4-3.9,3.49-6.42,3.25-10.42,0-10.42,0,6.29,4.37,8.3,5.5c1.47.83,2,3.15,2.34,5l2-2.32,1.85-1.2,2.21,1.79-1.18,2.29,1.13,1.33-.79,1.58,2.56-.93,1.33-1.6,3.39-1,1.25-2.19,2.17-1.83.74-2.41,1.78,1.06,2.4.13-1.27-1.79,3.46-1.47.13-1.9,2.73,2h0l-.87-1.72,1.33-.09-1.66-4-2.21-2.89,1.64-1.19,3.55.6,0-3.28-1.19-3.67.31-1.22-.41-3-3.73,1-1.5,1.31h-3A29.15,29.15,0,0,0,860.24,124Z"/><path class="cls-2" d="M849.24,199.1a20.37,20.37,0,0,1,6.63,1.33l3.14-3.1,1.64-4.11,1-4.12a37.68,37.68,0,0,0-4.59-2c-4.69-1.56-6.49.63-14.8,2.72s-10.95-.25-14.3.94-4.45-2.57-8.6-1.88-3.87-3.44-9.83-7.42c-5.43-3.61-1.55-3.05-1.22-2.8.61-.7,8.75-7.14,11.55-9.43,3-2.46,4.34.16,10.8.63s-1.64-7.81-5.6-14-2.65,4.61-5.7,7.65-7.54,3.08-12,0-2.92.08-3,3.22-2.68-1.55-6.35-1.65.74,5.17-1.24,4.73-8.8.44-13.51.5S771.73,177,767,178.76s-2.83,2.82-3.85,2.15c-.53-.34-5.35-.9-9.91-1.36l1.28.86,1.69.5,1.29,1.65,2.34.68,2.61,1.51,3.37.79,3.39.34,1.58-.73.8,2.71,1.35-2.56,1.35-.87,2.2.8,1.52.08,1.45.93,2.2-.43,2-2.56,2.77-2.19,2.58.84,1.68-1.45,1.83,2.14-.63,1.45,3.18.51,1.61-.26,1.41,2,1.43.82.67,2.63.49,2.84-2.12,2.87.46,4.08L802,199l1.3,3.17,1.94.66-.31,2.86,2.37,1.29,1.37.63,1.93-1,.35,1.42.4.8,1.55.1L811.72,205l1.4-.5,1.39-.84h2.3l2.72-.39,2.09-1.83,1.65,1.29,2.76.62-.07,2,1.64,1.4,3.08.89s7.09-3.57,8.27-4.87S841.9,198.78,849.24,199.1Z"/><path class="cls-2" d="M866.05,196.37c.05.18-.38.68-.38.86s-.47,2.41,0,2.53.16,2.22.16,2.4a7.3,7.3,0,0,0,.43,1.14s.13-.4.5-.33a3.1,3.1,0,0,1,.83.89l.11-.5.43-5.51,0-2.07-1.54-1A8.08,8.08,0,0,0,866.05,196.37Z"/><path class="cls-2" d="M868.66,143.61l.56-1,.21-.6,1.05-.75-1.25-2.45.25-1.16.61-1.15,1.13.21-.67-.6h0l-2.73-2-.13,1.9-3.46,1.46,1.27,1.8-2.4-.13-1.78-1.06-.74,2.41-2.17,1.83-1.13,2a3.3,3.3,0,0,1,1.89-.18c1.07.41,2-.27,3.21.37a5.48,5.48,0,0,1,1.92,1.85,6.34,6.34,0,0,0,1.15,1.7c.41.42,1.1,1.41,1.82,2.24v0l1.87-.17,1.07-.23,0-.82-2.2-1.5-1.33-.56.16-.38-.57-1.47.78-.92Z"/><path class="cls-2" d="M869.87,154.09c.85-.1.94.15,2.46,1.86.93,1,3.24,1.73,4.86,2.35l-1.24-3-1.6-2.22-4.09-4,0,.82-1.07.23-1.87.17-.15.56C868.07,152.27,869.36,154.15,869.87,154.09Z"/><polygon class="cls-2" points="891.02 165 890.33 164.84 889.07 165.16 891.6 167.03 892.41 166.46 893.98 167.56 894.76 165.48 893.94 164.3 893.94 164.3 893.32 164.1 891.17 164.64 891.02 165"/><path class="cls-2" d="M901.24,150.35l-1,1.33-2.51,3.43-1.35-.86L895.1,156l-.17,3.62-3.26-.7-5.1,1-1.11,2.35L883.35,164l-.13.42,1,.77,2.34,0,1.51-2.6a11,11,0,0,1,2.71-1.38,9.81,9.81,0,0,1,2.5,1.09l1.1.53.15,0,.05.12,1.24.59-.88.22.72,1.64,2.39,1.32,2.42-3.92,3.7-.16c.42-1,.68-1.86.68-1.86a5.27,5.27,0,0,1,.76-4.46,6.92,6.92,0,0,0,.66-4.09l-.78-1.66.9-3.45-1.28-2.77-3.87-4.72-2.56.62-.07,2.16,2.35,3.83Z"/><polygon class="cls-2" points="885.87 166.41 885.88 166.4 885.57 166.19 885.87 166.41"/><path class="cls-2" d="M883.28,113.47a11,11,0,0,0-1.56,2.17c-.85,1.77-2.41,3.32-3.58,2.76s.32-1.28,0-1.75a7.51,7.51,0,0,1-.1-4.34c.42-2.13-.57-6.94-1.14-7.94s-4.24-3.4-5.68-3.68-3.1,2.69-3.52,4.19,3.58.55,4.46.06,2.2,2.27,3.33,4.53-1.42,4.54-1.28,5-1.92,1.21-1.92,1.21l-5.19-2.06s.4-3.75-5.41-3.41a4.54,4.54,0,0,0-4.44,3.74l1.69.89,2.87,3.13h4l1.5-1.31,3.73-1,.41,3-.31,1.22,1.19,3.67,0,3.28-3.55-.6-1.65,1.19,2.22,2.89,1.66,4-1.33.09.87,1.72h0l.67.6h0l-.14-1.13,2.36-2.48,2.53,1.64,1.67,0,2.55-2,.68-2,1.46-3.89,1.37-3.92-.48-2.32,1-4.83Z"/></svg>