<svg id="polar-bear" xmlns="http://www.w3.org/2000/svg" viewBox="0 0 1033.69 558.3"><defs><style>.cls-1,.cls-4{fill:none;}.cls-1{stroke:#000;stroke-linecap:round;stroke-width:0.5px;}.cls-1,.cls-2,.cls-4,.cls-5{stroke-linejoin:round;}.cls-2,.cls-3,.cls-5{fill:#a1edff;}.cls-2,.cls-4{stroke:#a1edff;}.cls-2,.cls-4,.cls-5{stroke-width:0.75px;}.cls-5{stroke:#618e93;}</style></defs><g id="ICE"><path class="cls-1" d="M114.3,50.33l-.5.37"/><path class="cls-2" d="M491.3,18.6c-.93.9-10,1-10,1l-8-.52-16.22-1.25L455.3,14.3,442,15.48l-6.19,1.06-6,1.16-6.68-1.16-23.28,2.33L391,21.59l-7.44,4.3L381.93,30l12.48,2.29L399.08,35l5.09,8.82,2.33,8.47-6.68,3.89s-4.05.7-5.28-2.75-8.71-10.78-17.14-10.49.63,8,3,12.19.38,6.79-3.3,8-13.21,18.64-13.21,18.64l-7-2.82L350,76.44l-4.3-2-10.3-1-6,13.35-16.9,7s-6.32-.27-7.53,0-7.35-4.46-7.35-4.46l-7.8-2.55-2.45-2v-5l1.53-2.65,14.32-11.9,5.48-7.25H288.6l-8.9-2.95-7.24,2L257.15,56l-3.65-4-9.7-.44-25.36,1.69-13.86-1.69-21.68-3.3L160.79,49l-14.29,4.6s3.46,7.2,0,6.17-12.43.58-14.17-.4-11.82-.2-14.23-.2S114.3,54,114.3,54V50.33C157.5,18.66,210.12,0,266.9,0H491.44C491.66,6.16,492,17.94,491.3,18.6Z"/><path class="cls-3" d="M920.1,50.8l-.27,1.33-6.5-1.33h-8.42L902,53.35h-4l-3-2.55H883.1l-11.4-2L852,46.6,837.3,43.48,826.93,44.6,813,45.15l-4.6,2.66L798.1,44l-5.84-4.4-13,1.78L767,40.07,750.86,37.6l.54-5-13.79-2.35-27.71,5-6.22,4.1-6.88,2.88-4.75,1.4-8.59,1.62s-6.39-1.4-7.7-1.86-8.09.75-11.79,1.71-9.87-3.83-11.06-1.36-5.31,3.06-15.61,2.69-7-5.88-8.08-8.29,10.06-8.61,15.68-11.26-6-.78-7.17-2.46-23.11,0-26.48.23-9.14-3.12-14-4-19.5,5.18-23.7,6-15.06,5.71-18.6,6.19-15-4.57-19-6.39-9.71-5.64-12.8-7.1-31.38,0-31.38,0L492.25,0H767C824,0,876.8,18.8,920.1,50.8Z"/><line class="cls-1" x1="492.25" x2="478.39"/><path class="cls-4" d="M492.25,0l-.43,19.4s28.29-1.46,31.38,0S532,24.68,536,26.5s15.46,6.88,19,6.39,14.4-5.4,18.6-6.19,18.89-6.82,23.7-6,10.58,4.2,14,4,25.28-1.92,26.48-.23,12.79-.19,7.17,2.46-16.73,8.86-15.68,11.26-2.22,7.92,8.08,8.29,14.43-.23,15.61-2.69,7.35,2.33,11.06,1.36,10.49-2.18,11.79-1.71,7.7,1.86,7.7,1.86l8.59-1.62,4.75-1.4,6.88-2.88,6.22-4.1,27.71-5,13.79,2.35-.54,5L767,40.07l12.26,1.32,13-1.78L798.1,44l10.29,3.8,4.6-2.66,13.94-.55,10.37-1.12L852,46.6l19.75,2.2,11.4,2H895l3,2.55h4l2.91-2.55h8.42l6.5,1.33"/><path class="cls-1" d="M113.8,50.7C157.1,18.8,209.9,0,266.9,0"/><path class="cls-1" d="M767,0c57,0,109.8,18.8,153.1,50.8"/><line class="cls-1" x1="266.9" x2="767"/></g><path id="NO" class="cls-5" d="M569.52,27.17l-3.09-.58-1-.95-4.12.51,1.4.81-1.28.66,3.75.6Zm-14.11-4.62-2.68-.84-2.92.08-.62.83-2.85,0-1.22-.85-5.35.87,1.78,1.93,4.22,2.13,3.17.74-1.74.92L551.86,30l2.48-.11.65-2.15,1.72-.48.8-1.87,4.91-1-7-1.84Zm14-1.69-5.18-.59-1.82.7-3-.56-6,.66,2.4,1.1,2.88,0,.5.67,6,.41,5.75-.29,2.6-1.31-4.14-.83Z"/><path class="cls-5" d="M131.47,63.12a15.78,15.78,0,0,1,3.73-1c3.67,0,1.28-2.57,8.9.1s3.94-7.4,5.77-8.1,1.38-2.62,12.84-4,12,1.33,13.78,0,18.16,2.15,18.16,2.15l6.62.6h0l3.31-3.4h0l-2-.41-2.48-.86-3.44.47-1.32-.38-4-.27-3.69-.9-2.57.28L182.22,47l.86-.66-3.54-.17-1.6.55-.14-1.28h0l-2.63-.6L170,46.31l-1.81-.19-5.66,1.26-2.54.33-3.87,1.36L154,50.48l-4.35,1.32-4.09.09-3,1.53,2,.92.76,1.25,0,1.47,1.57,1.13L146.74,60l-5,.11,1.93-1.48h-1.88l-6.73,1.45-4.62,1.25,1,1.73Z"/><polygon class="cls-5" points="315.78 35.6 318.71 35.8 320.67 34.75 320.56 33.89 319.47 32.95 315.86 33.67 313.77 34.89 315.78 35.6"/><polygon class="cls-5" points="330.34 71.98 330.04 71.36 329.1 71.29 327.73 72.21 327.51 72.42 327.69 73.34 328.62 73.6 330.34 71.98"/><path class="cls-5" d="M363.88,80.4l-.83-2.79-2.15,1.45-1.73,1.64a11.82,11.82,0,0,1,7,5.21l-.56-1.5Z"/><path class="cls-5" d="M347.53,73.93l-2.15-1.78-1.74-1-2.34.8L339,71.62l-3.67-.84-2,.71-1.48,4.81-.25,2.82-4.35,3.28,1.92,2.37.5,2.61c-.09-.49-.6-3.54.83-4.75s3.17-7.72,4.9-7.72,5.68-1.13,7.75.94c1.3,1.31,3.64,2.2,7.41,3.09l.2-1,1.15-2.61-4.18-.23Z"/><path class="cls-5" d="M373.46,94.68l-2.81-.62a2.34,2.34,0,0,0,1.29,1.08,12.52,12.52,0,0,1,2.87,1.36l-.05-.79Z"/><polygon class="cls-5" points="346.58 38.08 345.44 38.26 344.71 39.26 346.17 40.73 346.7 40.9 349.29 40.52 351.59 40.58 353.84 40.66 354.1 39.9 351.31 38.38 346.58 38.08"/><polygon class="cls-5" points="321.4 37.14 317.02 37.05 314.34 37.8 312.33 38.97 311.27 40.35 310.83 42.8 313.25 42.91 317.07 40.82 320.03 40.27 325 37.81 321.4 37.14"/><polygon class="cls-5" points="348.17 55.69 348.8 54.44 347.45 53.63 345.17 54.03 343.34 55.67 343.15 57.12 345.78 56.97 347.71 56.1 348.17 55.69"/><polygon class="cls-5" points="354.3 42.29 350.31 40.88 347.59 41.99 342.8 42.8 344.24 40.97 342.36 38.1 336.17 39.24 332.7 41.48 332.14 39.74 334.93 37.96 328.89 38.69 325.89 39.82 322.51 42.32 321.28 45.17 324.4 45.19 321.25 46.48 322.44 47.49 325.76 47.92 329.93 48.76 337.65 49.41 341.9 49.03 343.57 48.19 344.77 49.16 346.65 49.33 348.03 51.13 346.2 51.86 350.23 52.85 352.96 54.26 353.33 55.27 353.31 56.57 348.93 59.45 347.4 60.93 347.65 62 342.69 62.38 338.31 62.43 335.66 64.64 337.11 65.68 344.11 65.2 344.49 64.33 347.19 65.79 349.97 67.34 348.76 68.2 350.95 69.68 355.26 71.46 361.2 72.68 361.25 71.61 359.55 69.76 357.34 67.14 362.22 69.58 364.86 70.41 366.56 68.21 366.28 65.22 365.65 64.42 363.09 63.03 361.43 61.3 362.49 59.59 365.63 59.22 368 62.08 370.32 63.36 375.81 59.9 377.39 57.81 373.88 57.62 371.79 54.91 368.49 54.27 364.07 52.37 368.83 51.01 368.02 48.32 366.66 47.16 361.9 46.03 360.57 44.23 356.15 44.87 356.55 43.63 354.3 42.29"/><polygon class="cls-5" points="320.94 27.94 324.65 28.1 325.65 28.03 326.15 27.73 325.13 27.26 321.03 27.22 320.94 27.94"/><polygon class="cls-5" points="322.79 26.65 322.79 26.65 324.18 25.73 322.57 24.86 321.55 24.7 319.02 24.6 318.18 25.63 318.16 26.58 319.28 27.18 322.79 26.65"/><polygon class="cls-5" points="327.63 23.36 331.32 23.34 329.1 24 328.22 24.9 329.47 25.92 333.42 26.25 337.18 26.07 342.57 24.18 345.99 23.44 344.27 22.65 344.27 22.65 344.2 21.06 341.38 20.61 338.57 20.11 337.39 18.87 332.69 18.99 332.95 19.52 330.75 19.68 328.6 20.4 326.09 21.45 326.22 22.54 327.63 23.36"/><polygon class="cls-5" points="322.91 31.16 324.08 32.32 323.3 33.65 322.9 35.13 327.89 36.01 331.09 36.34 335.49 36.3 341.88 35.88 344.38 36.21 347.94 35.62 349.74 34.9 350 33.78 348.43 32.77 345.15 32.59 340.71 32.81 336.95 33.39 334.05 33.17 331.3 33.05 330.44 32.42 328.5 31.81 329.76 30.82 328.66 29.95 324.57 29.96 322.97 29.12 322.97 29.12 318.86 28.96 317.15 30.03 318.87 30.84 322.91 31.16"/><polygon class="cls-5" points="320.53 61.15 318.2 63.89 316.58 66.27 313.71 67.76 317.06 67.47 316.91 69.25 321.1 67.68 324.28 66.07 324.88 67.43 328.17 68.16 330.74 67.2 329.58 66.2 327.73 66.44 328.28 65 326.1 64.06 324.12 63.03 323.2 62.25 321.76 62.71 322.06 61.39 320.53 61.15"/><polygon class="cls-5" points="319.56 71.08 319.65 71.91 321.3 71.98 324.93 70.29 325.29 69.7 322.05 69.67 319.56 71.08"/><polygon class="cls-5" points="308.94 25.92 311.5 26.75 314.57 27.03 314.78 25.97 314.4 24.77 309.86 23.87 306.26 23.53 305.39 24.48 307.22 25.08 304.49 25.83 308.94 25.92"/><polygon class="cls-5" points="247.49 46.09 254.51 44.72 255.61 43.48 260.09 41.52 267.17 39.56 270.51 38.86 269.26 37.7 267.93 36.91 262.63 36.76 260.13 36.19 252.51 36.62 252.94 38.3 249.31 40.12 245.85 42.16 243.79 43.35 247.46 44.84 247.49 46.09"/><polygon class="cls-5" points="267.93 31.87 272.97 30.74 275.05 30.61 277.59 29.7 279.98 27.7 276.75 28.08 273.63 28.05 267.56 29.73 261.92 31.7 264.15 32.28 267.93 31.87"/><polygon class="cls-5" points="279.98 27.7 279.98 27.7 279.98 27.7 279.98 27.7"/><polygon class="cls-5" points="294.05 39.02 292.92 38.41 289.95 38.52 288.9 38.91 290.67 40.85 294.05 39.02"/><polygon class="cls-5" points="294.39 48.6 291.39 47.24 288.75 45.83 289.62 43.83 290.42 41.09 288.91 39.97 287.14 39.53 284.9 39.93 284.08 42.79 282.04 43.96 282.52 41.2 281.31 40.29 277.65 41.71 275.85 40.3 270.3 41.15 272.53 39.84 272.53 39.84 270.8 39.31 263.5 41 260.98 42.11 257.27 44.22 260.44 44.97 263.86 44.93 257.78 46.07 258.04 47.12 261.13 47.17 266.04 46.95 269.77 47.62 266.47 48.11 263.45 47.98 259.62 48.48 257.88 48.78 258.73 51.07 260.99 50.74 263.41 51.53 263.54 52.9 267.76 52.63 273.79 52.19 278.75 51.21 281.49 51.03 284.77 51.81 288.5 52.27 290.03 51.21 289.4 50.09 293.24 49.86 294.39 48.6"/><polygon class="cls-5" points="396.82 15.26 392.96 14.99 388.02 14.82 388.02 14.82 384.02 14.69 380.03 14.56 374.13 14.91 373.37 14.69 367.44 14.78 363.74 15.01 360.81 15.34 358.02 16.5 356.63 15.89 354.38 15.78 350.59 16.59 346.38 16.94 344.03 17.01 340.64 17.43 340.18 18.2 341.73 18.87 342.38 19.8 345.07 20.6 352.15 20.45 356.37 20.72 352.47 21.59 351.13 21.33 345.79 21.23 345.47 22.47 347.45 23.42 346.14 24.29 342.03 24.88 339.56 25.85 342.46 26.34 343.94 27.98 339.34 26.87 337.94 27.05 337.45 28.91 333.15 29.5 332.42 30.76 336.25 30.9 339.11 31.22 345.54 30.81 350.47 31.54 357.13 29.96 357.53 29.32 353.92 29.42 354.05 28.83 357.49 28.06 359.19 27.05 362.88 26.33 365.45 25.46 364.7 24.23 366.44 23.79 363.9 23.48 370.2 23.21 371.86 22.72 376.3 22.31 381.22 20.36 384.96 19.7 390.71 18.3 386.44 18.32 388.63 17.81 393.72 17.36 399.25 16.41 399.82 15.83 396.82 15.26"/><polygon class="cls-5" points="316.6 50.11 316.6 50.11 316.6 50.11 316.6 50.11"/><path class="cls-5" d="M212.16,53.4c3.2.25,9.79-.92,10.92.7s1.32.73,6-.14,20.33-1.45,21.64-1.26A12,12,0,0,1,256,55.37c.94,1.1,9,4.67,11.67,3.36S278.07,58,278.07,58s-5.5-3.18,3.35,1,16,2.56,17.5,1.89,4.81,1.4,2.13,3.47-8.06,7.52-12.15,9-3.46,8.66-3.21,9.79,1.21,4.68,2.14,4.41,2.92,1.7,2.92,1.7,4.14-.86,4.75,0,4.35,3.06,4.35,3.06,9,2.31,8.85,2.78c-.07.17,1.72-.28,4-.92l.11-.19-2.58-.31-4.05-.19-2-1.35-2.71-.88-1.06-1.51-1.89-1.22-3.91-1.37-3.77.63.09-2.41.45-3-3.3-.52,2.14-3.64,2.31-2.44,4.57-3.48,4.32-2.48,3-.38,1.29-2,2.58-1.28,3.47-.2,3.86-2L317,62.72l3.67-2.52,1.53-1.49,1.87.9,3.45-.46,5.63-2.07,1.08-1.43-.72-1.57,2.56-1.56.69-1.44-2.17-1.43-3-.42-3-.23-2,3.18-3.15,2.52-3.63,2.12-1-2,2-2.17-1.52-1.87-4.44,2.28,1.9-3-3.77-.58,2.91-1.41-.84-3.22-1.35-1.25L311,43.2l-4.05,2-2.39,3.16,1.8,1.16,1.19,1.78-2.94,2.93-1.77-.08-3,2.34,1.84-2.77-2.83-1-2.35.51-1,1.82L292.28,55l-3.85.46-3.07-1.32-2.7.23-1.11-1.58-1.31-.7-2,.29-2.84.14-2.21,1,1.38,1.24L271,56.28l-1.1-1.76-2.32.51-6.39.35-3.61-.63,4.33-1.45-1.85-1.47-2.36.18L255,51.52l-4.35-1.06-2.38-1.21-2.55-.17-1.58.84L241,50.4l1.64-2.19-4.71,1.95-1.42-2.58-1.25-.3-1.74,1.35-2.28.67-.42-1.19-4.31.72L222,50.09l-3-.35-3.57.9-3.13,1.21-2.08-.27-2.16-1.39-3.47-.7-3.33,3.43C203,53,209.41,53.19,212.16,53.4Z"/><polygon class="cls-5" points="292.47 27.57 292.47 27.57 293.94 26.8 291.47 26.41 288.21 26.66 285.69 27.48 287.87 28.31 292.47 27.57"/><polygon class="cls-5" points="296.35 41.55 300.11 43.72 300.83 44.8 302.77 45.03 307.16 43.94 309.39 41.41 307.01 40.21 310.03 38.88 310.08 38.08 305.99 38.43 303.89 37.85 300.29 39.18 301.25 41 297.1 40.65 296.35 41.55"/><polygon class="cls-5" points="302.56 49.07 300.77 48.25 298.34 49.5 295.74 50.4 297.89 51.7 299.94 51.38 302.37 52.26 304.45 51.24 303.83 50.13 303.54 49.59 302.56 49.07"/><polygon class="cls-5" points="303.89 37.85 303.89 37.85 303.89 37.85 303.89 37.85"/><polygon class="cls-5" points="275.75 31.48 270.3 34.09 272.79 34.58 282.64 34.25 277.13 35.45 276.59 36.34 279.88 36.28 286.3 35.1 293.85 34.68 296.25 33.4 297.06 32.09 294.97 31.98 292.69 32.42 292.75 31.48 292.75 31.48 293.24 30.22 291.38 29.91 288.55 30.87 289.16 33.42 285.67 33.22 283.45 31.64 278.45 30.74 275.75 31.48"/><polygon class="cls-5" points="305.45 34.54 307.37 34.97 311.09 34.69 313.68 32.7 314.76 31.33 314.21 30.11 314.21 30.11 313.75 30.45 310.96 30.3 307.03 31.2 304.86 31.12 303.19 33.17 306.82 32.97 305.45 34.54"/><polygon class="cls-5" points="295.95 25.27 295.94 25.27 295.95 25.27 295.95 25.27"/><polygon class="cls-5" points="295.94 25.27 293.86 24.76 292.9 24.65 289.99 25.4 289.56 25.76 292.94 25.76 295.94 25.27"/><path class="cls-5" d="M493.91,17.83l-5.76-.44-9.67.87-5.22.85,2.52-1.32-1.39-.8-4,.68-5.59-.76-7,.24-.81-.39,10.5-.21,7.43-.1,3.8-.83L467.42,14h0l-15-.25-6.81.19-2.88.75-6.63-.09-7.25,1.25-.85.93,3.92,1.2-3.63-.73-2.61-.17-4.09-.82-6,1.21L414,16.76l-6,0-6.23.35-5.07.58,0,1-3,.24-8.07,1.63-2.45.95,4.78.86-1.39.89-8.21,1.19-8.53,1.21-1,1,3.92,1.05,8.38.67-4.23.14-5.95.81L373.56,31l1.92.85,5.22-.2,5.65-.1,4.33.19,4.84,1.56-.58,1.13,2.2,1,1.25,2.9.88,1.92.88,1L396.63,44l1.54.7,2.34-.39,1.58,1,3.1,1.8L401,46.27l-2.06,0-1.47,1.52-.62,1.95,2.38.94,2.17-.41,1.37-.43,2.92-1-1.28,2.25-1.33,1.22-3.78,1.08-3.5,3.43,1.15,1-1.61,2.19,2.24,2.75-.6,2.7.54,2,2.89,3.79.67,3L402.88,76l4.8,0,2.87,2.53,3.46-.19,2-3,1.73-2.55-.32-2.39,4.49-2.44,1.7-2,.59-2.11L426.68,62l3.5-.7,3.26-.73,1.62-.13,5.43-2.08,3.88-3.11L447,54.11h2.5l6.81-1,6.53-2.29,6.4-2.51-3-.15L460.34,48l2.85-1.51-.39-1.93,2.42,1.64,1.51,1.1,4-.55-.46-2.29-2.57-1.73-2.81-.7,1.25-.75,4.1,1.16.18-1.25-2.37-1.88h3l3.1-.43.86-1-2.29-1.12,4.77-.19-2.37-2.34,2.3-.25-.11-2.27-3.6-1.4,3.57-.83,3.25-.11-2.18-1.69.47-2.82,1.94-1.61,2.68-1.77-4.59-.11,6.45-.42,1.22-.54,8.31-1.65ZM475.64,25.4c-.94,1.52-4.41,2.2-4.47,3.56s-.05,4.74-.05,4.74.94,2-.75,2.4-5.46.53-5.65,2S463,40.4,462.16,40.9s-3.65,3.71-3.27,6,0,3.68-2.64,3.63-10.54,1.8-10.54,1.8-3.8.07-4.14,1.33-2.25,4.13-4.32,3.49-5.84,1.42-6.59,1.23-6.4-1.1-7.15,0-4.71,5.83-4.71,6.39-1.88,2.7-3.2,1.35S413.91,72,413.91,72s-7.15.72-7.15-1.17-5.94-5.62-5.61-7.33-2.44-4.53-1.33-5.66,5.24-2.38,6.18-4.39.95-2.58.95-5.4-1.89-3.85-3.39-7.1-4.47-7.6-3.74-8.25S399.61,30,397.54,30s-5.84-.31-7.72-.18-5.83.81-5.83,0-.95-1.53,0-2.58a7.26,7.26,0,0,1,3-1.58c.56-.6.75-1.35,3.38-1.35s1-2.25,2.64-2.51,8.84-.8,9.6-1.78,7.71-1.4,7.71-1.4a36.32,36.32,0,0,0,8.1.27c3.57-.42,6.58.42,8.28,0s7.9.05,8.47,0,3.38-1.92,5.08-2.49,8.84-.56,9.59-.56,7.16-.75,6,0-2.55,2.53.13,2.78,6.83-.44,8.52.27,8.28-1.27,7.91,0-2.4,1.91.4,2.63S476.58,23.88,475.64,25.4Z"/><polygon class="cls-5" points="814.08 35.75 816.87 35.11 824.77 35.18 824.03 33.18 814.73 31.76 809.07 31.65 806.9 32.15 807.89 33.99 814.08 35.75"/><polygon class="cls-5" points="823.03 37.81 820.64 38.06 819.8 39.16 820.34 39.3 825.09 39.61 828.34 39.59 828.34 39.59 827.26 38.86 823.03 37.81"/><polygon class="cls-5" points="732.68 24.99 726.08 23.58 724.4 23.42 723.03 23.7 722.56 27 733.13 26.02 732.68 24.99"/><polygon class="cls-5" points="832.71 35.29 836.39 35.54 837.52 34.47 831.35 33.76 826.93 33.35 827.48 34.23 832.71 35.29"/><polygon class="cls-5" points="706.54 23.22 710.8 24.17 717.13 24.89 721.24 24.57 721.24 24.57 719.47 22.36 712.36 20.06 707.21 18.89 703.54 19.41 700.1 21.01 703.29 21.48 706.54 23.22"/><path class="cls-5" d="M120.35,57.22l-2,2.15-.69-.73L120,56.8l-2.43-2.92-3.69-3-2.37,1.91c1.37.58,1.36,1.72,2.52,3.15,1.51,1.85,1,3.3,1.17,3.44a9.12,9.12,0,0,1,.62,4.12,5.94,5.94,0,0,1-1.76,2.07l.38,0,1.63-.63,3.35-2.93,4.14-.31,3.75-1.3L126,57.66Z"/><polygon class="cls-5" points="124.8 44.23 124.36 44.34 121.79 46.28 124.9 46.11 124.9 46.11 128.06 45.43 128.75 45.04 126.65 44.23 124.8 44.23"/><polygon class="cls-5" points="611.39 21.24 613.84 21.8 615.96 21.41 616.03 21.02 617.72 20.84 620.21 20.52 620.2 20.52 620.76 20.17 617.53 19.66 615.89 20.04 615.07 20.6 614.31 19.97 611.32 20 607.68 20.43 612.13 20.5 611.39 21.24"/><path class="cls-5" d="M668.44,48.87l-.09,1.37c1-1.79,0-3.26,1.53-3.64s1.53-1.75,3.24-1.75,4.53,3,5.73,2.85l1.18-.17-1.75-2-1.85-.9.84-2.29L676,40.8l-6.12-.73-1.32.55-.09,2.54-2.76,2.56.51.92Z"/><polygon class="cls-5" points="631.95 44.46 636.22 45.22 637.3 46.48 644.66 46.85 645.86 46.6 645.86 46.6 640.68 44.27 639.27 41.94 641.5 39.26 643.47 36.57 648.79 33.99 654.54 32.71 661.21 31.39 662.12 30.57 660.05 29.53 656.22 29.87 653.22 30.85 646.54 31.34 640.5 33.05 636.45 34.47 637.59 35.7 633.53 38.11 635.64 38.44 632.35 40.81 633.03 42.33 631.04 42.94 631.95 44.46"/><path class="cls-5" d="M683.24,46.86l0,.19c.81-.11,1.47-.19,1.73-.19.77,0,4.2-.83,5.54-1a34,34,0,0,1,4.77-.19c2.1,0,2-5.09,4.84-4.74s3.94.75,5.85,0-1.62-2.82,4.72-2.94,2-2.29,6.34-2.45,13-2.44,16.12-2.63,3.92-1.34,6,0,4.88-1.2,6.45.83,2.31,1.57,4,1.8-4.77,3.47,0,4.24,3.38.17,6.27-.11,6.7,1.43,8.25,1.25.56,1.22,4.18.51,4.55-1,6.86,0a20,20,0,0,0,7.65,1.21c.95-.19,3.43-1.26,5-1.21s2.45.6,4.13,1.57a24.94,24.94,0,0,0,5.22,2c1.53.46.38.46,3.05.46s3.25,5.92,10.12,4.39,3.73-4.61,6.1-4.46,2.94.87,8.34,1,1.3-2.44,5.93-2.09,5.58.4,11.87,1,5.29,2.14,7.2,2.2,12,.54,14.53.73,5.92,2.57,6.7,2.24,3.49,1.24,3.78,1.41,2.91-.36,6.91,0,4.77.66,6.68,0,4.43-.93,6.13.37,5.47,3.2,7.5,2.25a5.63,5.63,0,0,0,2.88-2.45c.3-.51-.68-.51,3.72-.51s8.78,1.62,9.35,1.24.92-.38,4.47-.38c.38,0,.9,0,1.5.08l-1.14-.94-4.73-1.26L909.89,49l-4.41.17-8.09-.8.57,1.28,4,1.84-1.68.93-7-2.57-3.86.32-4.88-.57-3.86.08-2.31.59-3.69-.82-2.14-2.1-3.21-1.18-4.93-.47-8.28.54L848,44.09l-3.74-1.67L822.67,40.6l-1.56,1.21,4.31,2.61-4-.39-.8.79L815.5,44l-3,.76-4.77-1.27.78,3L804,45.26,799.08,43l.14-1.17-2.76-1.79-4.93-1.46-3.41,0-5-.48L785,40.26l-9.41-.41-1.73-1.3-7.3-.45-3,.43-.3.72-2.67-1.77-1.47.52-3.78-.69-3-.39.88-.81,4.21-1.5,1.59-.8-.82-1.39-2.65-1-5.95-1.28-6.11,0-1.29.64-1.79-1.3h0l-5.07-.4,2.2-.64-4.34-.83-3.85,1.06-1,1.11.43,1.13-3.86,0-3.5,1.41-2.21-.6-5.29.25-.12.72-5.27.36-3.1,1.33-2.38.08-1.19,1.78,2.72,1.43L700.2,38,695,37.83l-3.37.56,2.06,3L697,43.68l-5-1.6-4.43.15-3,1.1,2.16,2-2.64-.52-.68-2.72-2-1.55-1,.07,1.63,2-2.86,1.9Z"/></svg>