<svg id="sloth-bear" xmlns="http://www.w3.org/2000/svg" viewBox="0 0 1033.69 558.3"><defs><style>.cls-1{fill:#ffc043;stroke:#af8231;stroke-linejoin:round;}</style></defs><path class="cls-1" d="M754.69,254.8a9.19,9.19,0,0,1,1.61,2.07,1.14,1.14,0,0,1,0,1.11.88.88,0,0,0,0,.9c.05.09.05.81.68.45s.62-1.55,1.15-.36a2,2,0,0,0,.42.59l.64-.52.28-3.56-1.61-3.56-1.51-2.41-2.15-1.9-1,5.55.18,1.2A2.47,2.47,0,0,1,754.69,254.8Z"/><path class="cls-1" d="M751.79,185.51l-3-1.69-3-1.3.35-2.41c-.88-.34-1.71-.26-1.89-.44a8.72,8.72,0,0,0-4.16-.33c-1.19.4,2.64,2.12,3.24,2.71a7.52,7.52,0,0,1,1.45,1.79c.13.39,2.71.79,3.28,2s1,.89,1.81,1.78,1.52.47,3.1.3a3.91,3.91,0,0,1,2.14.23,5.66,5.66,0,0,1,2.11.86c.55.46.51.67.51.67a12.8,12.8,0,0,0,2.58.24l1-.7-1.49-1.32-4-.44Z"/><polygon class="cls-1" points="769.6 187.95 772.97 188.88 771.81 188.35 771.61 187.66 770.82 184.95 769.23 185.68 769.31 187.16 769.6 187.95"/><path class="cls-1" d="M769.2,209.48a3,3,0,0,1-1.69-.86,11.78,11.78,0,0,1-1.12-1.39c-.27-.46-2.38.07-2.71.07a2.78,2.78,0,0,1-1.65-1.4c-.6-.93.06-1.05.06-1.05l2.18-.59c.47-.14,1.39-1.72,1.39-1.92s-.86-2.25-1.26-2-1.07,2-2.29,3.14-.41-.24-.41-.7,0-.27-.4-2-1.26-.26-2.18-.23-2.78-.63-2.78-1.15.7-2.22.27-3,0,0-3-.19-1.14.65-4.84,3-2.7,1.91-4.55.66.92-2.42.86-3.17-1.59-2.12-2.38-3.77-3.18.2-5.49,1.45a7.51,7.51,0,0,1-5.09.86c-1-.13-1.25,2.32-2.47,3.11s1.42,4.36.89,4.56-.33,1.85-.14,3.63a67.09,67.09,0,0,1,.53,7.25,3.12,3.12,0,0,1-.93,1.9l1.3,4.21,1.87,6.64,3.09,4.71.69,2.14,1.07,4.28,1.8,3.29.87,1.23c1-.4,2.06-.67,2.47-.1.79,1.13,1.5,2.15.33,3l-1.18.88v0l1.64,4.79,3,3.19.33-.29c-.49-.86-1-2-.65-2.64.6-1.06,2.38-1.59,2.71-1.32a3.06,3.06,0,0,1,.54.6l1.7-.63-1-1.13.4-.87a1.8,1.8,0,0,1-.82-1.48c-.29-2.05-2.3-4.16-2-5.35a16,16,0,0,0,.29-2.77l1.62,1.52.68,1.17.78-3,.48-.83,1.27-1.09.5.15-.21-1.49-1.57-.71s-2.78-3.24-2.45-4.23.3-2.77.65-3.17.28-2,1.4-2,2.25-1.32,2.58-1.32a9.28,9.28,0,0,0,1.8-.85l1.7-2.06,2.82.83.24-.2,1.92-2.16.3-.44-1.45-1.92a1.59,1.59,0,0,1,1.19-.37c.77,0,.4-.79,1.65.22l1-1.53,3.85-2.31,1-1.59Zm-33.27-9c1.18-.82,2-1.42,3.23-.89s-.79-1.26,1.26.53,2.05,1.52,2.05,2.25-.4.26,1.12.89,2.36.1,2.11,1.22a3.48,3.48,0,0,1-1.45,1.85L741.9,205a15.35,15.35,0,0,0-2.27.1c-.47.14-3-.33-3.24-.26s-1.13-1.55-1.13-1.55S734.74,201.35,735.93,200.52Zm20.61,19.07s-1.52.33-2.91.52-2,1.92-4,.48-1.63,2.83-2.36,3-.79,1.52-.39,3.93-.73,2.61-1.78,2.81-.07-2.25-.6-4.23-1.85-.73-2.45-1.26-.92,0-1.32-.06-1.58-1.66-2-3.57.8-1.92.8-2.91,1-2.38.53-2.91-1.72-.79-2.91-1.19-2-4.23-2.31-6,.59-3.11,3.17-1.27c0,0,1.39.08,2.11.05s3.11.82,4.43.82.53-.59.6-.87,1.58-.71,2.39-.61,2.23,1.29.62,1.35-1.41,2-1.89,2.25,0,0-.93.76,1.32,1,1.46,2.41,3.83.42,3.83.42a12.35,12.35,0,0,1,1.25-.62c.55-.22,2.05,1.72,3,2.12s1,2.11,1.74,3.19S756.54,219.59,756.54,219.59Z"/><path class="cls-1" d="M783,195.52a5,5,0,0,1,4.35-2.22,14.68,14.68,0,0,1,2.79.26l.5-1.43-.49-2,1.77-1.33a2.92,2.92,0,0,0-3.42.42c-3,2.39-3,.13-7.36,0l-2.31.1-2.46-.23-1.17.37.33.09,1.22,5.16,2.22.37,2.65-.05Z"/><path class="cls-1" d="M774,192c-.63.69-1.41,1.51-1.71,1.91l1.06.8-.45.37c.9,1,2.31,2.53,2.31,2.53l1.58.92,2.65.23h1.91v0l1.25-.2.78-2.91-1.76-.59-2.65.05-2.82-.47-.7-2.39-1.4-.17Z"/><path class="cls-1" d="M764,188.88h1.83L767,187.6h-4.43l-1.22-1.16h-1.44l-2.49-.29v-.37l-2.66-1.21a9.35,9.35,0,0,1-2.68-1.72c-.69-.86-.39-.23-1.48-1.06s-1.41,0-1.41,0l-3-1.73-.36,2.46,3,1.3,3,1.69,4.08,1.93,4,.44,2,1.75,1.32.19Z"/><path class="cls-1" d="M780.87,187.13l-.86-.68c-.1.2-.17.32-.17.32l-2,1.13-1.12.13-.74-.43-1.83.3-.86,1.11,1.41.65,1.68-.54,2.46.23,2.31-.1Z"/></svg>