<svg id="andean-bear" xmlns="http://www.w3.org/2000/svg" viewBox="0 0 1033.69 558.3"><defs><style>.cls-1{fill:#009de2;stroke:#006b91;stroke-miterlimit:10;stroke-width:0.75px;}</style></defs><path class="cls-1" d="M310.66,257.64l.79-2.72s.43-4.53,2.15-4.82a5.88,5.88,0,0,0,2.85-1.4l-7.65,3.11-1.3,1.9a14.79,14.79,0,0,1-1.7-2.94,15.37,15.37,0,0,1-.3-3.77,6.37,6.37,0,0,0-.16-2l-.83,1.14-.5,2.44-.93,2,1.51.23.3,1.57.61.75.16,1.38-.4,1.27.07.71.71.28.65,1.2,3.81-.33Z"/><path class="cls-1" d="M306,256.73l-.71-.28-.07-.71.4-1.27-.16-1.38-.61-.75-.3-1.57-1.51-.23.93-2,.5-2.44.94-1.27s-3.32.95-4,2.17.4,4.76,1,5.8a6.2,6.2,0,0,1,1.14,3.07c0,1.07,0,3.63,0,5.83s-3.35,3.71-3.9,5.5-3.22-5.42-3.14-6.2a16.11,16.11,0,0,1,1.31-4.1c.57-1.12-1.52-2.51-1.31-2.86a16.61,16.61,0,0,0,1.81-6c.54-3.77,0,0-.5,1.27s-1.52.88-3,2.11a18.31,18.31,0,0,1-2.27,1.85c-.52.26-.55,2.16-.55,2.16a17.67,17.67,0,0,1,.54,4.65c-.14,2.1,0,5.57,0,7.09s-2.83,5.34-2.83,6.3-1.34,1.19-1.61,2.29a5.31,5.31,0,0,1-1.43,1.87l2.09,1.39.56-.06.71,1.47,2.44.46c.15-.55.33-1.14.47-1.77.4-1.79,0-.91.65-2s1.23-2.14,3.66-2.12,1.2-.69,1.61-2.31,0-1.34,0-1.34l2.19-1.4c2.19-1.39.9-1.56,3.2-2.73s1.73-2.06,2.1-2.25a30.68,30.68,0,0,0,2.4-3.25l1.45-4.08-3.56.31Z"/><path class="cls-1" d="M289.36,291.92l.4-1.42s1.48-4.65,1.24-5.25,1.58-4.31,1.58-4.31l-2.5-.48-.71-1.47-.56.06-1.28-.86c.49,1.75-.83-.31-.83-.31a5.64,5.64,0,0,1,0,4.13c-.89,2.07-1.55,2-2.59,1.6s-.82,1.43-.93,3.05.78,3.36.92,4.24-1,1.73-1.32,2.5c-.07.14-.44.25-1,.32l.31,1.15-.82.81.11,1.25,1.22-.27,1.2.37,1.29,1.72,1.62-1.4.5-2.31,1.74-3Z"/><polygon class="cls-1" points="293.42 280.39 292.58 280.94 293.76 280.65 293.42 280.39"/><path class="cls-1" d="M281.38,296.93l-.11-1.25.82-.81-.38-1.43S280.82,295.69,281.38,296.93Z"/><path class="cls-1" d="M283.46,300.8c1.24.82-1.17,2.88-.36,3.57s-.21,1.5,1.5,1.09a3.9,3.9,0,0,0,2.33-1.32s-.91-1.83,2,1.15,3.19,2.63,3.67,5.61a12.79,12.79,0,0,1,0,5.62c-.31,1.72-2.37,2.2,1.18,2.88s3.13.43,5.36,1.72,3.06,1.48,3,2.85,2.32,1.27,2.66,2.41a15.11,15.11,0,0,0,1.94,4.36c1,1.49-1.22,4.24,5.24,4.24,1.93,0,3.32.07,4.32.15l.45-.92-.63-1.27,1-1.71c-2.47.38-3.49-.38-5.28.87s-4.51-3.2-4.93-4.6,1.91-.32,3-.15,1.28-2.23-.53-5.17-1.85-1.07-2-.17-3.54-2.05-5.29-2.61-3.53-1.16-6.1-2.19-.87-6.08-.87-6.08.46-3.44.46-5.27-1.26-3.67-2.42-5.27-.9-1.38-1.36-.92-1.95.23-3.21-1.37c-1.1-1.39.35-5.38.73-6.37l-.38.14-1.74,3-.5,2.31-1.62,1.4L283.8,297l-1.2-.37-1.22.27C282,298.18,282.23,300,283.46,300.8Z"/><path class="cls-1" d="M334.34,356.1a5.78,5.78,0,0,1,1-3.9c1.34-2-1.8-3.12-1.8-4.6s-.46-1.61-.51-2.25-1.21-3.72-1.53-5.32-1.17-1.61-1.86-2.78-1-1-5-2.12-2.19-.84-2.19-.84.47-2,0-2.52-5.33-.54-5.33-.54l-1,1.71.63,1.27-.57,1.16.07.12,1.49-.36s2.43-.45,3,.67a10.26,10.26,0,0,0,1.71,2.51c.47.45,2.47.45,2.79.45h2.15l1.45,1.49,1.37,3.65,1.33,2.78-.6,3.72v2.31l.23,2.11.46,3,1.65,2.06.66-2.25A2.49,2.49,0,0,1,334.34,356.1Z"/></svg>