<svg id="sun-bear" xmlns="http://www.w3.org/2000/svg" viewBox="0 0 1033.69 558.3"><defs><style>.cls-1,.cls-2{fill:#ff4800;stroke-linejoin:round;stroke-width:0.5px;}.cls-1{stroke:#483737;}.cls-2{stroke:#aa2c00;}</style></defs><path id="BN" class="cls-1" d="M855.45,265.83l1.42,1.78.57-1.17,1.41.11.08-2.18.06-1.69-2.42,1.88-1.12,1.27Z"/><path id="ID" class="cls-1" d="M866.55,274.8l.48-1.58L864.78,270l1.57-3.09-2.58-.57h-3.39l-.89,3.88-1.1,1.19L857,276.15l-2.4.73-2.81-1-1.41.3-1.7,1.73-1.89-.25-1.9.7-2-1.93-.52-2.29-1.72,2.27-.32,3.17.41,3,1.39,2.92,1.46,1,.36,4.58,2.43.39,1.94-.18,1,1.65,3.55-1.23,1.44,1.1,2.1.19,1.09,2.09,3.41-1.54.39,1.22,1.3-5.23.14-3.4,2.86-2.34-.12-3.09,1-2.33,3.49-.4-3.35-3.17Zm-36,26.23.34-5.28.88-4.25-1.39-2.16-2.16-.31-1-1.9-.47-2.39-1.06-.08L824,283.47l1.19-2.79-2.25-1.56-1.74-2.86-2.51-2.34-3-.05-2.88-3.68-1.66-1.42-2.36-2.31L806,263.12l-4.59-.66-1.91-.14.33,1.74,3.21,3.76,2.27,1.92,1.61,2.92,2.7,2.15,1.12,2.67.88,2.93,2.59,2.85,2.19,4.78,1.42,2.56,2.16,2.78,1.2,2.08,3.68,2.79,2.35,2.85,3.27-.07Z"/><path id="MY" class="cls-1" d="M816.47,259.84l-2.48-1.5-.48.61.72,1.45-.21,2.49,1.14,1.86.5,2.83,1.78,2.29.39,1.74,3.54,2.71,2.83,2.53,2.09-.23,0-1.15-1.21-3-1.06-.95-.27-2-.32-1.17.26-1.56-.25-2.3-1.34-2.28-1.84-2.07-.69-.32-.9,1.41-1.92.4-.32-1.75Zm52,5.9-.61-1.67,2-.17.14-1.34-2.52-1-2-1-.22-1.48-1.62-1.73h-1.19l-1.33,2.67L859,262.43l-.05,1.68-.08,2.18-1.42-.11-.57,1.17-1.41-1.77-1.37,2.16-2,2.7-3.52.74-1.24.64-.54,2.9-2.27.64-2.18-1.18.52,2.29,2,1.93,1.9-.7,1.89.25,1.7-1.73,1.41-.3,2.81,1,2.4-.73,1.42-4.75,1.1-1.19.89-3.88h3.39l2.58.57,2.13-1.16Z"/><path id="KH" class="cls-1" d="M832.66,232.74l-2.75-1.26-1,2.36-2.57-1.34-2.8-.5-3.71.66-1.54,2.85,1.13,4.13,1.82,3.54,1.36,1.78,2.5.5,2.42-1.38,3.06-.25-1.49-2.07,4.66-2.64-.1-4.1-1-2.28Z"/><path class="cls-2" d="M817.37,198.8c.42-4.55-7.43-8.55-14-12a21.46,21.46,0,0,0-6.2-2.07l.88,1.26,1.43.82.67,2.64.49,2.83-2.12,2.87.46,4.08,2.93-.57,1.29,3.17,1.95.66-.32,2.86,2.37,1.29,1.37.63,1.94-1,.34,1.42.4.81,1.56.09-1.15-3.93,1.4-.5,1.39-.84,2.3,0,2.72-.4C818.82,200.34,816.94,203.35,817.37,198.8Z"/><path class="cls-2" d="M795.06,184.2l-3.18-.51c-2,0-5.58,3.46-5.58,3.46s-8.08,4.11-8.84,3.65c-.59-.36.13-1.11-2.17-1.51l-.68.22-.85-.39-1.34-.07c-5.73-.16,3,3,3,3l1.67,2.56,1.85.31,2.65-.05,1.76.58-.78,2.91-1.25.2-.54,2,1.89,1.78.08-2.2h.79l2.46,5.45,1.29-.81-.55-1.46.44-1.17-.53-3.56,2.39.78.75-2.83-.18-1.68,1-2.88-.5-2,3.19-2.38,2.17.62-.7-2.11.86-.63Z"/><path class="cls-2" d="M786.3,208.06l-.35-2.47-2.46-5.45h-.79l-.08,2.2-1.89-1.78.54-2,1.25-.2.78-2.91-1.76-.58-2.65.05-2.82-.48-.7-2.39-1.4-.17-2.55-1.48-.25,1L773,193.2s4.9,4.81,5.65,5.1,2.5,4.3,2.5,4.3l.11.47.7,0,1.55,2,.82,1.65.45,1.75,1.11,1.79-.63-2.76Z"/><path class="cls-2" d="M792.75,218.73l1,3.21-.47,4.25.37.16a33.48,33.48,0,0,0,1.4-3.85s.58-3.76,0-4.8-5.6-5.56-4.85-8.8,1.51-4.2,1.51-4.2l2.6-5.16L798,203.3l4.41,2.9L806.3,208l2-.82-1.11-.51-2.37-1.29.32-2.86-1.95-.66-1.29-3.17-2.93.57-.46-4.08,2.12-2.87-.49-2.83-.67-2.64-1.43-.82-1.41-2-1.61.25.52,1.31-.86.63.7,2.11-2.17-.62L790.06,190l.5,2-1,2.88.18,1.68-.75,2.83-2.39-.78.53,3.56-.44,1.17.55,1.46-1.29.81.35,2.47-1.09-.52.63,2.76,2.48,2.8,1.76.44-.17,1.24Z"/><polygon class="cls-2" points="808.4 211.17 808.8 209.9 809.57 209.08 808.41 208.57 806.3 210.2 802.45 210.2 805.42 213.45 806.87 211.96 808.4 211.17"/><path class="cls-2" d="M809.1,235.68l-.54-1.91L806.3,231l-.9-1.71.93-.64.7-3-1.5-2.26-2.19-2.5-1.83-3,1.13-.63.43-2.1-.62.31s-2.59-4.19-3.05-4.35-2.2,1.43-2.2,1.43-.52-.19,0,1.4a8.63,8.63,0,0,1,.52,3.25c0,.94-1.65,4.21-.52,5.25.64.59,1.68,1.71,2.47,2.57l.25-.21,1.7-1.72,1.63,2.84,1.06,4.33,1.41,4.1,1.38,1.77.13,3.73,1.18,2-.68,2.62.49,2.54,1.14-3.51,1.32-3.19-1.46-3.12Z"/><path class="cls-2" d="M812,208.77l0,.08,1.44,1.85s.79-.46.07-2.9a1.87,1.87,0,0,1,.52-2.25l-.93-1.16-1.4.51,1.14,3.93Z"/><path class="cls-2" d="M815.18,209.94c-.11,2.14,1.65,1.56,1.65,1.56a47.14,47.14,0,0,1,4.77.5c.06,0,.07.05.1.07l-1-1.82-3.57,0-1.41-2.37A5.68,5.68,0,0,0,815.18,209.94Z"/><path class="cls-2" d="M831.69,226.89l-2.54-2.38-2.28-3-3-4.06-3.8-2.05.63-1.23,1.7-.9-.6-1.09c0,.32-1,.84-1,.84a9.18,9.18,0,0,1-4,1c-2-.06-1.38.83-2.55,1.69s-1.18,5-1.18,5l-.37.68,2.73-2,1,.6,1.69-.1.4-1.19,2.24.24,2.63,2.78a6.59,6.59,0,0,1,2.6,2.61c.33.57,2.12-1.28-.38,1.51l-.43.47,1.65,1.78.24,2.9-.76,1.55,2.57,1.34,1-2.36,2.75,1.26h0l.09-3.43Z"/><path class="cls-2" d="M810.9,210.3a4.37,4.37,0,0,0-.82-1.5l-1.27,1.36-.4,1.27,1.43,1,.41,1.71C810.24,213.32,811.4,212,810.9,210.3Z"/><path class="cls-2" d="M815.63,203.31h-1.15l-1.39.84,1.25,1.54A22.36,22.36,0,0,0,815.63,203.31Z"/><path class="cls-2" d="M820,215.12l3.81,2.06,3,4,2.28,3,2.54,2.39,1.07,2.42-.1,3.42,1,2.29.1,4.1L829,241.5l1.49,2.07-3.06.25-2.42,1.38,1.91,1.58c3.74-1.86,3.75-2.09,5.84-1.68.4.07.82.14,1.25.19l2-1.42h-2.41l1.87-4.17.86-.5,2.29,2.24.27-.28-.08-2-.49-.55s-2.6-2.22-2.6-4.76v-4.71a8.64,8.64,0,0,0-.13-1.47l-1.26-1.61-2.7-1.94a8.66,8.66,0,0,1-1,.19l-1.2-1.8.43-.57-1.88-2.48-1.68-2.16c-1.75.05-1.77-.79-1.77-.79l-1.35-3.5s.46-5.66-.51-8.4a3.76,3.76,0,0,1,0-2.57l-1.2-.94-.65.57a2.94,2.94,0,0,0-.14,2.44c.77,1.1.7,1.58,1.18,2.1s-2.06,3.28-2.06,3.28l-1.26.5,2,0,1.64,3-1.7.9Z"/><polygon class="cls-2" points="816.18 208.37 817.13 209.97 817.77 209.97 816.18 208.37"/><path class="cls-2" d="M826.81,227.8l-.84-.91-.37,3-5.26,1.5H814l3.34,4s-1.26-.63-1.17,0a4.32,4.32,0,0,0,.38,2.41l2.79,1.57-1.13-4.13,1.55-2.85,3.7-.65,2.8.49.76-1.54Z"/><path class="cls-2" d="M816.18,257.61l-1.76-2-.71-3-1.42-3.12-1.92-.1L810,247l.7-3,1.12-5,0-1.19c-.8-2.45-1.83-5.56-2-5.92-.34-.6-.12-5.61-.12-5.61s-1-4.35-1.25-4.75.54-4.87,1.23-3.4,1.27,4.67,2.13,4.9,3.81.75,3.48-.5a16.35,16.35,0,0,1-.3-3l-2.19,1.62-.53-3.08.16-3.61-2-.16-.5-2.06-1.43-1.06-1.53.79-1.45,1.49-2,.15-.76,3.71-1.13.63,1.83,3,2.19,2.5,1.5,2.26-.7,3-.93.64.9,1.71,2.26,2.73.54,1.91.12,1.59,1.46,3.12-1.32,3.19-1.14,3.51-.62,3.28-.17,2.14.68,1.9.35-2L810,254l1.68,1.93.6,1.69,1.24,1.31.48-.61,2.48,1.5.32,1.75,1.92-.4.9-1.41L818,258Z"/><polygon class="cls-2" points="826.29 232.24 826.29 232.24 826.29 232.24 826.29 232.24"/></svg>