<svg id="brownBear-subs" xmlns="http://www.w3.org/2000/svg" viewBox="0 0 1033.69 558.3"><defs><style>.cls-1{fill:#ce2834;stroke:#991f2e;stroke-linejoin:round;stroke-width:0.5px;}</style></defs><g id="eurasian"><path class="cls-1" d="M543.6,124.7s.28,1,1,1.1,3.9-2.3,3.9-2.3,1.14-.34,1.22-1.3a16.06,16.06,0,0,0,0-1.83l-1.78.4-.28.64-1.62-.48-.14,1.38-1.14.56-2-.42-.25.64C543.15,123.9,543.6,124.7,543.6,124.7Z"/><polygon class="cls-1" points="560.24 123.52 560.17 123.5 559.63 121.68 558.53 121.72 557.24 122.48 555.05 122.22 554.86 123.88 555.57 125.31 555 125.61 556.86 125.73 557.31 125.16 558.24 125.71 559.29 125.77 559.22 124.83 560.12 124.49 560.24 123.52"/><path class="cls-1" d="M557.55,126.83l.68.21.12,1.14,1.3,1.42-.52.25,2.4,2.49,2.52,1,1.64,1.22,1.55.74-1-1.27-.16-.08L565,132.55l-1.07-.75-1.31-1.27-.65-1-1.4-1.58.36-1.09c-.15-.89-.31-2.45-.43-3.77l-.19.08-.17,1.36-.9.34.07.94-1-.06-.93-.55-.08.1Z"/><polygon class="cls-1" points="566.35 129 561.86 127.84 561.67 127.01 561.01 126.51 560.55 127.91 561.95 129.49 562.6 130.53 563.91 131.8 564.98 132.55 566.09 133.96 568.56 135.25 568.82 133.38 569.63 132.59 570.11 132.28 570.73 132.13 571 130.54 569.9 129.51 566.35 129"/><path class="cls-1" d="M572.2,133.7l-.91-.37-.42-.47-.76-.58-.48.31-.81.79-.26,1.84,1.34-.25h.7l.43,1.25.69-1.1.22.63.7-.3.44-.76.2-.29Z"/><polygon class="cls-1" points="577.2 135.13 576.82 135.15 576.25 134.52 576.25 134.52 575.79 134.36 575.4 133.82 574.88 133.61 574.46 133.14 573.99 133.32 573.71 134.45 573.09 134.69 572.64 135.45 573.28 136.36 573.96 136.71 574.23 137.94 574.23 137.94 574.58 137.97 574.64 137.28 575.4 137.02 574.85 135.8 574.61 134.97 575.67 135.31 576.24 136.74 576.79 136.62 576.68 136.36 576.97 135.96 577.2 135.13"/><polygon class="cls-1" points="571.72 135.12 571.72 135.12 571.72 135.12 571.72 135.12"/><polygon class="cls-1" points="575.65 141.39 574.47 140.56 573.97 139.1 574.23 137.94 574.23 137.94 573.96 136.71 573.28 136.36 572.64 135.45 571.94 135.75 571.72 135.12 571.04 136.19 572 137.4 572.6 139.1 572.37 140.06 572.6 142.3 573.28 143.49 573.5 144.3 573.18 145.34 573.59 145.54 574.74 143.89 574.82 142.78 575.67 142.28 575.65 141.39"/><path class="cls-1" d="M573.9,145.34l1.7.76a11.46,11.46,0,0,0,1.12,1.25,4,4,0,0,1,.65.6l1.4,2.69,2-.64.64-.7L579.6,147l-1.51-1.39,2.67-.54-1.92-1.72.57-1.59,3-.75,3.2-.94,2.54.44,2.1-.32.37-1.24h0l-1.4-.9.13,1.69-2.43.33-2-1.19-2.08.93-2-.1-.51.12-.39.59-1.48-.07-1,.75-1.75.3v.89l-.85.5-.08,1.11-1.13,1.62Z"/><path class="cls-1" d="M580.38,137.45l-1.45-1.09-1.24.06-.77.17c.69.31,1.73.79,2,.89s-.81.93-.81.93l-1.43.26h-1l-.41-1.61-.62.22-.06.69-.35,0h0L574,139.1l.5,1.46,1.19.83,1.75-.3,1-.75,1.48.07.39-.59.51-.12Z"/><path class="cls-1" d="M580.3,133.34l-1.43-1.46-.35-1.23.59-.77-.54-.59.57-.57-.7-.42-.77.76-1.22-.73-.1.85.75,1.28.9,3.08-.63-.4s-2-1.23-2.32-1.41l-.85-.5a5.19,5.19,0,0,0-.92-1.23c-.21-.13-2.33-.54-3.65-.8l0,0,1.39,1.3-.27,1.59-.62.15.76.58.42.47.91.37,1.08.7-.2.29.63-.24.28-1.13.47-.18.42.47.52.22.39.53.46.16.57.63.38,0L577,136l-.29.4.11.26.9-.2,1.24-.06.41-.47-.33-.41.36-1.08Z"/><path class="cls-1" d="M585,136.29l1.57-1.21,5.87-1.23V132.6l-4,.54s-2.94.05-3.76.16-2.67-.74-2.88-.7a6,6,0,0,1-1.28-1.45l-.48.12-.9-1.39-.59.77.35,1.23,1.43,1.46-.93,1.06-.36,1.08.33.4-.41.48,1.45,1.09.38,2.25,2,.1,2.08-.93,2,1.19,2.43-.33-.13-1.69A36,36,0,0,1,585,136.29Z"/><path class="cls-1" d="M580,117.8a2.51,2.51,0,0,1,1.45.3,11.56,11.56,0,0,1,1.07,2.1l.23,1,.33.7v1.79l-1.63,1.07s-1.66.22-3.7.63-1,1-1.42,1.37c-.17.12-.21.66-.2,1.3l1.59,1,.77-.76.7.42-.57.57.54.59.9,1.39.69-.17h0l-.5-1.92.56-1.16a10.61,10.61,0,0,1,1.71.28,10,10,0,0,0,1.88.15s2.17-.43,3.15-.64.6-2.11.6-2.11.1-2,.1-2.35a18.42,18.42,0,0,0-1.78-2.65s-1-1.69-1.47-1.9c-.18-.08-.31-.56-.4-1.15l-.76.46-1.3-.81-1.68,0-1.66-.36-.93.62A16.17,16.17,0,0,0,580,117.8Z"/><polygon class="cls-1" points="576.98 118.14 578.09 117.63 577.82 116.74 576.28 115.83 575.76 116.17 574.58 115.76 576.98 118.14"/><polygon class="cls-1" points="572 116.5 573.2 117.19 573.84 115.5 572.87 115.16 572.87 115.16 572.03 115.36 571.52 116.1 572 116.5"/><path class="cls-1" d="M584.65,117s-1.13-.94-1.95-1.55a7,7,0,0,0-1.25-.8,2.37,2.37,0,0,1-.93-1.11,8.69,8.69,0,0,0-.5-1.19l-1.6-1.8-1.36,1.83.82,1.49-.59-.2-.63.87-.38,1.34,1.54.91.27.89,1.06-.71,1.66.36,1.68,0,1.3.81.51-.3C584.16,117.45,584.65,117,584.65,117Z"/><path class="cls-1" d="M578.27,110.7c-.89,0-1.89-.21-1.93-.7-.09-.91-2.14-1-2.14-1s-2.56-2.71-3.6-2.14-3.78,1.86-3.78,1.86a14.73,14.73,0,0,1-1.62,1.76l1,.1,1.34,1.63.16.2,1-.45,1.41,1.18,1.47-.71,1.26.34,1.82-.47,2.6,1.27.59.2-.82-1.49Z"/><path class="cls-1" d="M568.2,115.7a4.05,4.05,0,0,0,2.47.5l.47.06.26-.09.54-.79.84-.2.94.33.25-.35s.19-1.46.61-1.38a12.41,12.41,0,0,1,1.91,1l.08-.29.63-.86h0l-2.59-1.28-1.83.47-1.26-.34-1.47.71L568.64,112l-1,.44-.16-.2h-.77l-.36.6-.58.14A28.12,28.12,0,0,0,568.2,115.7Z"/><path class="cls-1" d="M564.7,111.54l1.2,1.45.51-.13.35-.59h.78l-1.34-1.63-1.2-.12A9.68,9.68,0,0,0,564.7,111.54Z"/><polygon class="cls-1" points="547.6 119.7 545.84 120.92 546.11 120.94 547.73 121.41 548.01 120.77 548.97 120.56 547.6 119.7"/><polygon class="cls-1" points="560.55 120.7 558.55 120.69 554.3 120.37 551.67 119.8 550.72 120.45 551.23 121.36 555.05 122.22 557.24 122.48 558.53 121.72 560.83 121.64 561.29 121.07 561.5 120.43 560.55 120.7"/><path class="cls-1" d="M544.3,120.61h0c-.36,1.26-2.65.79-2.65.79l-.81,2.24.24.26,1.25-.1.53-1.36,2,.42,1.14-.56.14-1.38-1.34-.09Z"/><path id="EE" class="cls-1" d="M581.21,79.63l-3,.46-3,.87.45,1.8,1.7,1.12.85-.4,0,1.87,2-.56,1.13.39,2.29,1.17h2l.9-1-1.19-2.94,1.45-1.81-.46-.54h0l-2.49.09-2.71-.52Z"/><path id="FI" class="cls-1" d="M582.59,51.13l.53-2L580,48l-3.27,1-.7,2.12-1.92,1.28-2.53-.7-2.91.14L566,50.24l-1.22.76,3.2,1.43,3.84,2,.79,4.54.95,1.16L577,61.52l.45,1.27-1.44.62-4.85,3.27-1.87,1.91-.89,1.78,1.52,2.77-.14,3,2.46,1,1.63,1.7,3.84-.66,4.07-1.14,4.34-.25h0l4.44-3.94,1.87-1.78.59-1.56-3.89-2.08.58-2-2.54-2.25,1.06-2.56-3.34-3.38,1.66-2.22-3.86-2-.08-2Z"/><path class="cls-1" d="M587.9,49.7l-2.83-1.81,2.68-.76-5.38-1.53-1.91.3-7.94-.42-2.17,3.17-2.24-.86-2.22-.1-3.44.93-2,1.53-2.36.78-2.59,1.65L552,54.78l-.85,1-1.85,3.58-1.48.24-.79.91-3.93,4.18-4.44,3.12-5.31,3-.66-.52-.15.06-2.12,2,.38,2.77,4,2.75V82s-.45.64-1,1.5l1.75.82a10.55,10.55,0,0,1,4.25-2.56c1.29-.35,3.71-4.59,3.71-4.59l2.93,3,1.87-2.14.52-3.64-1.64-1.57-.45-4.06,1.31-2.85,2.32,0,.71-1.19-.94-1,3.2-4.21,1.94-3.28,1.27-2.08h2.17l.4-1.63,4.31.47.06-1.92,1.38-.11,1.22-.77,2.73,1.53,2.91-.14,2.53.7,1.92-1.28.7-2.12L580,48l3.08,1.15-.53,2,1.76-.27,3.55-1.16Z"/><path class="cls-1" d="M572.59,59l-.79-4.54-3.84-2L564.76,51l-1.38.12L563.32,53,559,52.57l-.4,1.63h-2.17l-1.27,2.08-1.94,3.28L550,63.76l.94,1L550.26,66l-2.32,0-1.31,2.85.45,4.06,1.64,1.57-.52,3.64-1.87,2.14s4.57,3.08,8.7,1.07a31,31,0,0,0,6.6-4.66l-.24-.16-1.94-2.18,1.27-4.33L565,67.32l3.4-2.44L567.76,63l2-2.09,3.83-.84h0Z"/><path class="cls-1" d="M583.2,87.28s-1.35,1.41,1.45,1.76a11.55,11.55,0,0,0,3-.07l-.19-.34L587,87.09l-1.3-.73h-2l-2.29-1.17-1.13-.39-2,.56-.14,2.43a9.27,9.27,0,0,0,4-1.13Z"/><polygon class="cls-1" points="572.68 87.14 574.63 86.28 573.86 85.47 571.92 86.43 572.68 87.14"/><polygon class="cls-1" points="584.61 92.29 584.61 92.29 583.8 91.8 579.2 97.79 580.22 97.8 582.8 96.58 583.14 94.76 585.05 93.73 584.61 92.29"/><path class="cls-1" d="M582.14,98.4s4,.55,4.73-.1,9.55,1.16,10.43.9a7.75,7.75,0,0,0,1.54-1l-.18-.06.05-.58L597.59,97l-1.92-2.12.4-.87-.49-1.51L593,91.73l-1.25.38-.47-.79h0l-2.75-.81-2.49,1.24-1.44.54.44,1.44-1.91,1-.34,1.82-2.47,1.17Z"/><path class="cls-1" d="M731,107.52l-.62-.47Z"/><path class="cls-1" d="M729.47,106.38c1.28-4.47,3.58-11.73,6-15.38,3.67-5.5,12.09-41.56,8.65-48.61s-2.79,1.21-7.27-8.19c-8.71-3.15-7.34-1.44-12.68,0S710.28,41,705.5,43.65s-4.55,5.89-6.3,5-2.68-1.67-11-2.65a32.41,32.41,0,0,0-6.72-.16l1.37.78-.24,2.88L684,51.11l2.58.23,0,1.93,2.17,1.66-1.25,1.4.12,1.46-2.14.76-.4,1.07-2.83-.44L684.66,55l0-2-3.39-1.79-1.54-4-1.4-1.58a7.31,7.31,0,0,1-2.22-1.31c-3.61-2.9-3.39,3.45-3.39,3.45l-1.53,3,0,0,3,1.54L673.45,54l-3.3-1.13-2.95,5.78a127.68,127.68,0,0,1-34.85,8.19C621.19,67.68,621.24,62,622.16,56L622,55.5l.24,0,.33-2-6.23-.88,2.21,1.81L618,56.13l2.43,1.76-.73,2-2.45-1-2.17-.17-4.57,2.91,2.13,2.2-1.77.73-6.09-1.87-1.21,1.14,1.71,1.29,0,1.47-2-.79-3.22-.92-.85-3.07-.47-1.38-4.24-2.18,1.6-.37,10.79,2.25,3.55-.79,2.13-1.56-.7-2-2.13-1.4-9.4-3.29-6.3-.69L590,48.7l-2.07,1h0l-3.55,1.16-1.76.27.08,2,3.86,2-1.66,2.22,3.34,3.38-1.06,2.56,2.54,2.25-.58,2L593,69.57l-.59,1.56-1.87,1.78-4.44,3.94,2.78,1.48-2.47,1.73.46.54-1.45,1.81,1.19,2.94-.9,1,1.3.73.45,1.54,1.08,1.88,2.75.81.48.79,1.24-.38,2.57.76.49,1.51-.4.87L597.59,97l1.12.59-.05.58,1.8.57c3.42.47,9.7-3.16,11.74-4.33s6.12-10.32,10.4-1.4,12.16,18.63,14.15,17.2.39-4.12,4.7-4.8,10.83-2.28,14.25-1.9,9.13,3.43,10.23,2.8-2.49-4.43,5.86-2.16l.77-.62c-3.58-2.44-16.29-9-10.66-9.67,7.59-.91,23.85-1.55,23.85-1.55s9.23-4.88,13.45-2.4,13.51,2,14.75,3.95c.93,1.43,11.26,9.31,16.26,13.08Z"/><polygon class="cls-1" points="871.07 96.89 871.04 96.88 871.02 96.88 871.07 96.89"/></g></svg>