<svg id="brownBear-subs" xmlns="http://www.w3.org/2000/svg" viewBox="0 0 1033.69 558.3"><defs><style>.cls-1{fill:#ce2834;stroke:#991f2e;stroke-linejoin:round;stroke-width:0.75px;}</style></defs><g id="grizzly"><path class="cls-1" d="M192.11,85.77l.17-2.27-1.15-1.41-.64-1.29,0-1.62-3.24,1L183.48,82,183,79.89l-.58-1.37-1.64-.86-2.3-.09,15.35-17.33,10.56-10.88h0l-2-.4-2.48-.87-3.44.47-1.32-.37-4-.27L187.41,47l-2.57.29L182,46.81l.86-.65L179.31,46l-1.6.56-.14-1.29h0l-2.63-.6-5.14,1.52L168,46l-5.66,1.27-2.54.32-3.87,1.37-2.16,1.4-4.35,1.32-4.09.1-3,1.52,2,.93.76,1.25,0,1.47,1.57,1.12-.13,1.84-5,.11,1.93-1.48h-1.88L134.85,60l-4.62,1.25,1,1.74-.33,1.21,2.64.72,3.66-.34,1.14.66,1.41-.66,3.16-.66,1.46,0L141.46,65l.75.54-1,1.39-2.75.94L137,67.63l-3.4,1.46-1.12-.48-2.14.22-2.45,1.56-3.69,1.71-2.71,1.77.52,1.32-1.72,1.75.91.75.63,1.46,3.72-.6.5,1.11-1.52,1.15L123,82.68h1.49l3.6-1.25L127.59,83l1.7-1.13.14,1.6,2.36-1.14.29.54,3.68-1-1.37.88c4.42-1.47,9.61-3,9-2.18a12.71,12.71,0,0,0-1.48,3l2.89-1.53-.43-1.52,5.49-2.22,3.51-2.07L158,74.54l-.05.77-3.41,1-3.83,3-1.28,1.84,3.28-.66,3.06-1.06,3.37-.65,1.51-.2,1.4-2.16,3.25-.66L167,77.1l3.52,1.42,3.58-.26,3.3,1.11,1.84.59,2.43,3.26,2.16.91,3.83.08,2.2.2-.91,3L190.22,90l-1.28,2.79,1.49,1L191,95l2.46-1.55,1.34-2-2.78-2Z"/><polygon class="cls-1" points="316.37 49.98 316.37 49.98 316.37 49.98 316.37 49.98"/><path class="cls-1" d="M182.38,78.52l.58,1.37.52,2.06,3.75-1.75,3.24-1,0,1.62.64,1.28,1.15,1.42-.17,2.27L192,89.39l2.78,2-1.34,2L191,95h0l-1.07,1.67L191.38,99l-1.26,2.62L192.5,103l-1.63,2-.35,2.91,3.85,1.37,1,1.42,3.18,3.26h6.72c-.41-.89-3.54-7.85-2.37-7.85s-5.61-3.74-5.49-6.73a6.91,6.91,0,0,1,1.75-4.53l2.2-.58,2,4.61s-.86.92.94,1.27,2.79,2.69,2.54,3.2a25.25,25.25,0,0,0-.62,3.38l1.12,2.24,1.62,5h15.5a10.29,10.29,0,0,0-1.92-8c-2.86-3.49-4.88-5.26-4.74-6.74a25.91,25.91,0,0,1,1.63-5s3-5.55,6.85-5,3.86-5.13,2.49-5.6-8.1,1.77-8.1,1.77-7.64-1-7.18-1.77,4.81-3.11,2.45-3.1-2.37-1-2.37-1,6.73-3,7-2.12-.09,1.65.67,1.6,1.9.05,2.36,0,.21-1.23.71-3.84,1.49-3.84.87-4.79-2.87-7.67.25-7.8S237,57.94,239,59.93,265.33,70.4,265.33,70.4s5.73,3.86,8.1,4,14,4.12,15.17,3.62a2.31,2.31,0,0,1,1.37.16l2.3-2.43,4.57-3.47,4.32-2.48,3-.39,1.29-2L308,66.14l3.47-.2,3.86-2,1.42-1.32,3.67-2.51L322,58.58l1.87.89,3.45-.46,5.63-2.07L334,55.51l-.72-1.57,2.56-1.55.69-1.44-2.17-1.44-3-.42-3-.22-2,3.17-3.15,2.52-3.63,2.12-1-2,2-2.17-1.52-1.86-4.44,2.27,1.9-3-3.77-.59L315.51,48l-.84-3.21-1.35-1.25-2.56-.45-4.05,2-2.39,3.15,1.8,1.16,1.19,1.79-2.94,2.92-1.77-.07-3,2.33,1.84-2.77-2.83-1-2.35.51-1,1.82-3.26-.07-3.85.47L285.13,54l-2.7.24-1.11-1.59L280,52l-2,.29-2.84.13-2.21,1,1.38,1.24-3.57,1.49-1.1-1.76-2.32.51-6.39.34-3.61-.62,4.33-1.46-1.85-1.47-2.36.19-2.68-.5-4.35-1.06-2.37-1.21L245.5,49l-1.57.84-3.16.47,1.63-2.19-4.7,2-1.43-2.58L235,47.14l-1.75,1.35-2.28.67L230.58,48l-4.31.72L221.74,50l-3-.35-3.57.9-3.13,1.21L210,51.45l-2.16-1.4-3.47-.69L193.79,60.23,178.44,77.57l2.3.09Z"/><path class="cls-1" d="M208.54,114c.59,2,1.4,4,2.36,4.29,2,.56,1.87,4.61,5,5.84,3.53,1.35,27,3.21,9-3.59-2.19-.82-.62-3.23-.08-6.54"/><path class="cls-1" d="M201.16,114c1.44,1.56,2.9,2.82,3.89,2.77.81,0,.72-1.22.25-2.77"/><path class="cls-1" d="M224.85,129.65c-2.75,1.25,0,4,0,4L226.2,136s4.82,2.06,4.2,0,0-6,0-6l2.55-.35-4.69-2.35Z"/></g></svg>