<svg id="brownBear-subs" xmlns="http://www.w3.org/2000/svg" viewBox="0 0 1033.69 558.3"><defs><style>.cls-1{fill:#ff2c27;stroke:#a81b1b;stroke-linejoin:round;stroke-width:0.5px;}</style></defs><g id="himalayan"><path id="KG" class="cls-1" d="M734.82,136.07l-1.81-.5-1.72-1.22L727.2,134l-4.48-.09-.87.38-4.23-1.43-1.33.7.14,2-4.74-1.16-1.64.47-.21,1.49.89.34-1.69,2.2,2.33,1.28,1.71-.85,3.68,1.79-2.85,2.46-2.15-.34-.74,1.06-3.1-.58.22,2,2.89-.26,3.65,1.11,5-.52.58-.78-.58-.8,2.18-1.61,1.7-.67,3,.46.42-2.18,3.37-.4.58-1.35,3.71-1.85.15-.76Z"/><path class="cls-1" d="M732.91,126.93c-3.19-1.64-6.38-3.35-7.19-1.81-1.22,2.34,7.43,8.13,9.87,8.13l-4.27-5.87Z"/><path class="cls-1" d="M725.72,132.85c-1.22.35-1.86-1.68-6-1.58s-6.07,1.9-9.81,1.57-7.48-8.33-7-3.54,1.27,7.34,3.73,8.57l.43.22,1.38-1.11,1.38-.63.21-1.49,1.64-.47,4.74,1.16-.14-2,1.33-.7,4.23,1.43.87-.38,4.48.09,4.09.36,1.72,1.22,1.81.5-.64-1.55C730.27,133.57,726.32,132.68,725.72,132.85Z"/><polygon class="cls-1" points="711.74 143.07 711.74 143.07 711.74 143.07 711.74 143.07"/><path class="cls-1" d="M724.09,150.77l-.24-1.33-1.86-.78-.81.35-1.49-3.17-5,.52L711,145.25l-2.89.27-.22-2,3.1.57.74-1.05-1.1.09-.63-.95.17-1.58-3.43.79-.33,2.19-.84,1.88-2.32-.16-.36,1.51,2.2.81.56,1.22c1.21-.1,2.22-.23,2.22-.23h2.9c.2,0,.72.56,1.2,1.3l.66-.87,1.66.78,0,1.05.87.16.41,2.88,1.35,1.12.8-.72,1.14-.34,1.36-1.53,2,.25H725Z"/><path class="cls-1" d="M725,152.89h-2.84l-1.95-.25-1.36,1.53-1.15.34-.79.72-1.35-1.12-.41-2.88-.87-.16.05-1-1.67-.78-.9,1.19,0,1.38-.31.5-.49,0a44,44,0,0,1,2.47,5.17c0,.5-1,4.92,1.15,5.44.55.13,1.32.35,2.15.59l0-.07-.39-1.32,1.08-1.44-.69-1.71-1-1.45,1.28-1.49,2.8-.72,3.08-.4,1.25-.63,1.51-.39Z"/><path class="cls-1" d="M713.08,139.32l-1.71.85L709,138.89l1.69-2.2-.89-.34h0l-1.38.63-3,2.37-.51,2.17.51,1.67-4.25,1.06s.78,4.31.11,6.74l.38,2.09,1.54,0,2.23.72.78-3.47-1.17-2.54-2.2-.82.36-1.5,2.32.16.84-1.89.33-2.19,3.43-.79-.17,1.58.63.95,1.1-.09,2.15.34,2.85-2.46Z"/><path class="cls-1" d="M687.3,155.22s-1.84-.52-2.06-.52a3.88,3.88,0,0,0-.91.4l1,.85,1.93.11Z"/><path class="cls-1" d="M701.36,151l-1.8-.67v.76s-1.55.22-3.62.59-.59,1.7-.59,2.16,1,1.75,1.18,2.12a6.76,6.76,0,0,1-1.18,1.86l.34-.08,1.35-1v-2.74l2.19-.66.17-1.22,1.49.92.86.1h0Z"/><path class="cls-1" d="M717.46,160.66l-1.08,1.44.39,1.32-.31.77c.19.18.56.33,1.63.18,2.07-.3,2.21-1.72,4.72.06,1.74,1.23,2.09,1.79,2.76,2L724,163.53l1-1.48,4.41.84,3-.51,2-2.89h0l-4.88-1.39-1.45-2.63-2.42-1.6-1.51.38-1.25.64-3.08.4-2.8.72-1.28,1.49,1,1.45Z"/><path class="cls-1" d="M747.67,177.75h0l-4.41-2.41s2.83,1.9,4,2.89Z"/><path class="cls-1" d="M727.11,168.87l2.61,1.7-.38.38a2.25,2.25,0,0,0,1.31.15c1.34-.53,6.47,1.25,7.8,2.61s4.81,1.63,4.81,1.63L740,173.16l-1.6-3.79,2.11.46-.29-1.75-1.5-1.76-.36-2.8-3.93-4-2,2.89-3,.51-4.41-.84-1,1.48,1.63,3Z"/><polygon class="cls-1" points="755.12 180.9 760.88 185.2 769.19 186.06 769.17 185.69 769.17 185.69 765.78 185.35 762.41 184.56 759.8 183.05 757.46 182.37 756.17 180.72 754.55 180.25 755.12 180.9"/><polygon class="cls-1" points="747.7 179.82 749.24 177.16 748.67 176.92 747.67 177.75 746.2 179.31 746.04 180.39 747.7 179.82"/><path class="cls-1" d="M761.76,182.61c-3.79-.69-7-4-8.26-4.71a37.47,37.47,0,0,1-4.6-4.52h0a4.36,4.36,0,0,1-2.4.17c-4.15-.68-3.3-6.85-5.22-10.18s-1.68-2.91-4.85-2.87,1.6-2.77,2-4.55-.88-3-4.81-3.41-3.18-4.67-3-6.44,6.74,1.77,10.5,1.38a32.45,32.45,0,0,1,4.36-.32s3.8-2.91,7.74-.63,4.78-2.28,4.78-2.28a5.74,5.74,0,0,0-2.86-2.6,25.58,25.58,0,0,0-5.88-.86s4.61-.71,7.06-1.42,2.36-.9-1.18-3.71-6.78-.4-9.39-.74-2.2.11-4.63-1.67.82-1.27.82-1.27l-9.07-5-1.53.43,4.27,5.87-1.57.88.8,1.94-.15.76L731,138.68l-.58,1.35-3.36.4-.43,2.18-3-.46-1.7.67-2.18,1.61.58.8-.58.78,1.49,3.16.81-.34,1.86.77.23,1.34.89,1.95.73,1,2.42,1.6,1.45,2.63,4.88,1.39,3.93,4,.36,2.8,1.5,1.76.3,1.75-2.12-.46,1.6,3.79,3.22,2.18,4.41,2.41,1-.83,2.49,1.06,3.32,2.24,1.69.5,1.29,1.65,2.34.68,2.61,1.51,3.38.79,3.38.34,1.58-.73.8,2.71,1.36-2.56,1.35-.87-1,.61C770.39,184.27,764.53,183.12,761.76,182.61Z"/></g></svg>