<svg id="brownBear-subs" xmlns="http://www.w3.org/2000/svg" viewBox="0 0 1033.69 558.3"><defs><style>.cls-1{fill:#8029cc;stroke:#532089;stroke-linejoin:round;stroke-width:0.75px;}</style></defs><g id="peninsula"><path class="cls-1" d="M141.87,83.6a12.71,12.71,0,0,1,1.48-3c.65-.87-4.54.71-9,2.18l-1.54,1-2.56,2.4-2.8,1.12-1.11.63-5.1,1.91-2.36,1.31-3.41.36-4.18,1.76-3.31,1-4,1.51-.07.54,5.1-.92,3-1.08,3.47-1.09,3.1-.9,1.51.25,4.08-1.37,2.07-1.5L131.54,88l1.83-1.4,3.3-1,3.8-1.32Z"/><path class="cls-1" d="M141.87,83.6a12.71,12.71,0,0,1,1.48-3c.65-.87-4.54.71-9,2.18l-1.54,1-2.56,2.4-2.8,1.12-1.11.63-5.1,1.91-2.36,1.31-3.41.36-4.18,1.76-3.31,1-4,1.51-.07.54,5.1-.92,3-1.08,3.47-1.09,3.1-.9,1.51.25,4.08-1.37,2.07-1.5L131.54,88l1.83-1.4,3.3-1,3.8-1.32Z"/></g></svg>