<svg id="brownBear-subs" xmlns="http://www.w3.org/2000/svg" viewBox="0 0 1033.69 558.3"><defs><style>.cls-1{fill:#005589;stroke:#002f47;stroke-linejoin:round;stroke-width:0.5px;}</style></defs><g id="siberian"><path class="cls-1" d="M740.25,111.41,738.6,110l-2.06-.64-2-1.91-1.66-.59-3.36.85h0c.32,1.7,1.09,4.39,2.79,4.86,2.52.68,3.44.51,5.28,1.74s.23,3.21,2.29,3.94a15,15,0,0,1,3,1.75l.67-1.13-1.13-3.35,2-.31L745.6,113l-2.19-2Z"/><polygon class="cls-1" points="746.69 112.99 746.51 112.73 746.19 112.82 746.69 112.99"/><path class="cls-1" d="M807.56,114.8c1.92.83,9.69-.64,13.06-1v-.36l-.07-2.5-2.94.27-2-1.11-1.74-.35-2.56,2.33-3.14.55-2,.82-3.54-.54H802C804.36,113.67,806.68,114.42,807.56,114.8Z"/><path class="cls-1" d="M755.18,118.25l2.87,2.7.48,3.92,1.5,1.46h.05c.45-.25.89-.53,1.27-.73,1.32-.73-1.35-2.35-1.94-3.09s.59-2.37.16-3.33-4.76-2.75-7.57-6,5.33-.77,7.7-1.21a14.12,14.12,0,0,0,4.08-1.45L761.37,109l-2.71,0-2.69-1-3.25,1.55L749,112.34l-2.5.58,1.6,2.31L751,117Z"/><path class="cls-1" d="M773.93,112.28c2.67-1.18,2.52-1.92,4.81-2.08s8.08,2.08,9.41,2.08,7.43-1.28,7.43-1.28l3.39,1-1.06-.74-3.33-1.59-2.8-.43-3.06.43-2.14.61-4.34-1.39-1.69-2.47-3.43-.84-2.51-.38-3.52-1.36-1,3.4,1.94,1.94-1.46,2.3-4.12-.83-2.63-.12S771.26,113.47,773.93,112.28Z"/><path class="cls-1" d="M833.62,120.41,830,118.07,827.38,117a21.05,21.05,0,0,1,1.18,4.6l3.11-.39,2.27.38Z"/><polyline class="cls-1" points="100.26 62.2 103.03 61.91 103.65 60.51 107.25 59.8 105.44 60.91 105.46 61.95 108.55 61.56 110.33 62.05 109.36 63.35 111.46 64.23 112.06 65.28 114.14 65.37 115.78 64.74 119.12 61.81 123.27 61.5 127.02 60.2 125.69 57.42 120.01 56.98 118.02 59.13 117.33 58.4 119.7 56.56 114.3 50.8"/><path class="cls-1" d="M842.21,126.41a2.82,2.82,0,0,0-.63.1l.63-.1Z"/><polygon class="cls-1" points="852 130.12 851.99 130.12 852 130.12 852 130.12"/><path class="cls-1" d="M871,115.7h0v0Z"/><path class="cls-1" d="M826,118l.1,0,.5-.45C826.14,117.77,826,117.91,826,118Z"/><path class="cls-1" d="M855.66,137.5c0,.19.9.61,2.37,1.16Z"/><path class="cls-1" d="M826.52,102.83a30.92,30.92,0,0,1,2.78-3.71l-1.16,0-2.79.58-1.12,1.62,1.86.78Z"/><polygon class="cls-1" points="825.36 117.88 825.44 117.94 825.47 117.94 825.36 117.88"/><path class="cls-1" d="M822,111.23l-1.4-.46.07,2.5,0,1.15S821.14,113.13,822,111.23Z"/><polygon class="cls-1" points="870.9 136.49 871.13 136.7 871.13 136.7 871.13 136.7 871.07 136.22 870.9 136.49"/><polygon class="cls-1" points="875.7 134.5 873.23 132.85 872.51 133.98 873.36 133.09 875.88 134.73 877.55 134.69 877.6 134.65 875.7 134.5"/><path class="cls-1" d="M883.4,123.49l.21-.6-.19-.93A11.16,11.16,0,0,1,883.4,123.49Z"/><path class="cls-1" d="M883.16,120.44l1-4.7-.12-.27C883.6,116.39,882.68,118.64,883.16,120.44Z"/><path class="cls-1" d="M943.88,70.49l-1.68-1.27-2-.82L936,65.9l-4-1.6,3.28.22,1.46-1.32v0L922.44,51.42l-4.73-1.26-8.15-1.38-3.65.14c3,2,5.1,3.87,4.68,4.5-1.12,1.68-11.78,0-17.38,0H873.86c-5.89,0-17.66-5.05-27.47-8.13-4-1.26-5-2.34-4.9-3.32l-12.53-1A34.12,34.12,0,0,1,826.7,45c-1.47,2-8.63,2.53-11.15,2.81s-19.91-2-25.3-2.81-4.36-6.79-7.5-7.09L784.66,40l-9.41-.41-1.72-1.3-7.31-.45-3,.43-.3.72-2.67-1.77-1.47.52s-13.15-.41-21.86-3.56c4.48,9.4,3.82,1.15,7.27,8.19s-5,43.11-8.65,48.61c-2.45,3.65-4.75,10.91-6,15.38l1.52,1.14,1.84-.46,1.66.59,2,1.91,2.06.64,1.65,1.4,3.16-.44,2.19,2,.91-.27,2.51-.58,3.75-2.85,3.25-1.55,2.69,1,2.71,0,2.41,1.54,2.63.12,4.12.83,1.47-2.3-2-1.94,1-3.4,3.52,1.36,2.51.38,3.43.84,1.69,2.47,4.34,1.39,2.14-.61,3.06-.43,2.8.43,3.33,1.59,2.41,1.69,2.4,0,3.54.54,2-.82,3.14-.55,2.56-2.33,1.74.35,2,1.11,2.94-.27,1.36.45a67.32,67.32,0,0,1,4.51-8.45l-.39-.64-1.86-.78,1.12-1.62,2.79-.58,1,0c2-2.36,4.3-4,6.54-3.79,7.47.65,15.7,2,15.7,2s15.4,4.78,17.68,8.13,3.6,4.55,4.06,4.59-2.11,5.5-2.11,5.5l12.86-.63-1.93-4.63-2.4-3.94-.24-3.27-2-2.78-6.2-3.57h0l-2.92-.21-.46,1.62-3-.72-2.68-2-4.24-.4,4-7.56-2.89,5.48L858.7,93s-.6-16.11,9-17.89,15.74,3,18.91,2,6.18-9.32,9.24-9.52,12.17-4.16,18.91-.2,15.43,10,15.43,10l1.54-1.9,1.4-2.17,1.74-.36L939,70.63l5.16.67Z"/></g></svg>