<svg id="brownBear-subs" xmlns="http://www.w3.org/2000/svg" viewBox="0 0 1033.69 558.3"><defs><style>.cls-1{fill:#fcfc00;stroke:#999500;stroke-linejoin:round;stroke-width:0.5px;}</style></defs><g id="syrian"><path id="AM" class="cls-1" d="M646,148.46l-.44-2.37-1.31-.56-1.31-.93.6-1.08-1.64-1.17.41-.86-1.13-.59-.71-.89-3.68.53.65,1.2v1.66l2.16.85,1.23,1,.55-.09.95.92h1.21l.07.52,1.42,2,1-.1Z"/><path class="cls-1" d="M640.12,151.2l.38-1.06-1.44-3.93,1.72-1-1.23-1-2.15-.85v-1.66l-.65-1.2-2.87-1.67L631,139l-2.93,1.78-2.38-.31-3.08.53-4.07-1.32-5-2.39-4.45.07-3,1-.19.14-1.17,1.26-1.4,2.55-2.37.25-1.32-.25-1.79.25v.5c0,1.73-.81,3.48-.7,3.9a6.81,6.81,0,0,0,1.22,1.5l1.27,2.19.54.94,1.62-4.63a9.67,9.67,0,0,0,2.23-.09c.21-.19,6.78.49,6.78.49s-1.1-5.22,1.67-3.89,4.76-.05,5,2.14a16.11,16.11,0,0,1-.4,4.6l-6,2.47-3,.14-3.77-.69-4.4,1.58-3-.5-2.54,1.37.64,1.12,3-.06,2.84,1.83,1.87-.41.5-1.42h.14a2.23,2.23,0,0,0-.67-.86,15,15,0,0,0-1.95-.49l2.93-.38,3,.24L608.3,156l.92.64,2.86-.29,1-1.8,3.88-1.07h3c.28,0,5-1.46,5.2-1.95s1.07.28,1.81,1a6,6,0,0,0,2.35,1.16s1.81-1,2-.5a4.13,4.13,0,0,0,.95,1.06l3-.52,1.11-.54,3.27.44,1.09.88,1.24-.58h0Z"/><polygon class="cls-1" points="634.28 155.7 635.32 153.74 632.41 154.24 634.28 155.7"/><polygon class="cls-1" points="619.25 165.54 620.12 166.09 623.12 165.3 622.28 164.6 620.07 162.78 620.67 164.13 619.28 165.42 619.25 165.54"/><path class="cls-1" d="M646.35,159.06l.49,2-1,1a3.52,3.52,0,0,1,1.42.72c.76.86,3.07,4.22,3.07,4.22s1.89-.7,4.51,2.3,8,6.65,8.06,7.9,4.82,1.25,5,.9-1.38-4-1.42-4.26,0-5.52-1.58-7.75-8.05-3.54-9.12-4.18-3.94-1.62-4.92-3a6.25,6.25,0,0,1-1-3.19,14.5,14.5,0,0,0,6.2,2.9c3.44.57,11,3.43,12.52,2.74a79.9,79.9,0,0,1,7.89-2.14s1.61-3.95,2.1-5.1a8.77,8.77,0,0,0,.47-1.61L676.09,151l-2-.32-1.08.64-1.86-.1-.53.65c0,.94,0,2-.26,2.13-.42.21-.42,1.8-2.1,1.6s-4.44-.24-4.44-.24h0l-.86.19-4-.59-.53-.41-4.29-.65s0-.66,0-1.35l-.08,0L652.72,150l-.65.17-2-1.79.3-.76-2-1.31L646,148.46l-1,.1-1.94-.45h0l-1.63-1.58-.63-1.29-1.72,1,1.44,3.93-.38,1.06,1.9,2.74,2.37,4.09Z"/><polygon class="cls-1" points="643.49 146.06 642.28 146.07 641.33 145.15 641.33 145.15 640.78 145.24 641.41 146.53 643.04 148.11 644.98 148.56 643.56 146.59 643.49 146.06"/><path class="cls-1" d="M653.29,147.32a23.21,23.21,0,0,0-2.71-.79l.15.16-.66,1.69,2,1.79.65-.17-.35-1.69.87-.8Z"/><path class="cls-1" d="M647.15,144.64s-1.59-2.48-1.81-2.86,4.46.22,4.46.22l1.82-.22-.56-1.15-.16-1.47-1-1.06-1.37,1.37-.31.87-1.24-.23h0L644.73,138l-.77-.11-.63.46,1.65,1.85-.3.39-1.5-.2-2.18-1-.57.56.71.89,1.13.59-.41.86,1.64,1.17-.6,1.08,1.31.93,1.31.56.44,2.37,2.82-2.52.19-.05Z"/><path class="cls-1" d="M643.33,138.39l.63-.46-1.84-.79-1.06-1.4-2.63-.71-1.54.54-.58-.63-3.93-1.63-4-.55-2.36-.58-.26.4,1.14,1,1.55.39,1.22.88,1.09-.24s2.59.84,3.91,1.15-.14.6-.14.6l.35.92-2-.43-1.74.6,0,.09L631,139l2.86-.16,2.87,1.67,3.68-.53.57-.56,2.18,1,1.5.2.3-.39Z"/><path class="cls-1" d="M678.44,150.2c.3-.81,1.11-1.11.54-1.23a26.56,26.56,0,0,0-3.12,0l-1.33,1.6,1.47.23,3.37,1.74S678.15,151,678.44,150.2Z"/><path class="cls-1" d="M672.32,149.4c-.22-.5-1.33-.46-2.07-.39-.53.06-.61,2.43-.62,3.74l1.42-1.73,1.86.1.55-.32A7.45,7.45,0,0,1,672.32,149.4Z"/><path class="cls-1" d="M687.3,155.22s-1.84-.52-2.06-.52a3.88,3.88,0,0,0-.91.4l1,.85,1.93.11Z"/><path class="cls-1" d="M634.75,129.5l-8.85.5s-.82.53-2,1.29l1.73,1.29.27-.4,2.36.58,4,.54,3.93,1.63.58.63,1.54-.53,2.63.71,1.06,1.39,1.83.79.78.11,2.22,2.07,1.24.23.31-.86,1.37-1.38h0l-3.66-4Z"/><polyline class="cls-1" points="640.78 154.52 639.69 153.65 639.69 153.65"/><path class="cls-1" d="M636.39,156.55a25.82,25.82,0,0,1,3.86.32,7.91,7.91,0,0,1,2.08.59c.35.17,1.6,2.13,2,2.41a14.16,14.16,0,0,1,1.61,2l.88-.85-.49-2-2-1L642,153.94h0l-1.24.58-1.09-.88h0l-3.27-.44-1.11.54-1,2A5.35,5.35,0,0,0,636.39,156.55Z"/><polygon class="cls-1" points="627.1 166.93 627.06 166.95 627.08 167 627.1 166.93"/></g></svg>