<svg id="brownBear-subs" xmlns="http://www.w3.org/2000/svg" viewBox="0 0 1033.69 558.3"><defs><style>.cls-1{fill:none;stroke:#6d0000;stroke-linejoin:round;stroke-width:2px;}</style></defs><g id="atlasX"><line class="cls-1" x1="544.4" y1="173.05" x2="545.39" y2="177.56"/><polyline class="cls-1" points="550.76 167.83 549.68 167.29 548.92 165.66 547.48 165.6 546.89 163.72 548.67 162 548.94 159.03 547.95 158.17 547.92 156.59 549.24 154.91 549.02 154.25 546.72 155.51 546.75 153.78 544.81 153.37 541.84 154.75"/><path class="cls-1" d="M512.58,160.85l-1.2,0-2.87-.76-2.64.24-1.65-1.46h-2l-.91,2.11-1.93,3.55-2.1,1.42-2.84,1.57-1.86,2.33-.42,1.81-1.15,3,.6,4.28-.14.16c1.77.36,3.27.66,3.57.66l5.05.13"/><polyline class="cls-1" points="541.84 154.75 539.96 154.96 538.82 154.16 535.88 154.19 533.3 155.54 531.9 155.03 527.34 155.31 522.66 155.92 520.01 156.96 518.26 158.38 515.26 158.97 512.58 160.85"/><path class="cls-1" d="M500.05,179.8l-1.42.27-.71.39c3.84-.53,17.44-2.24,20.48-.66,3.55,1.86,14.41-12,14.41-12s6.23.37,8.79,2.27a19.76,19.76,0,0,1,2.8,3"/><path class="cls-1" d="M545.39,177.56l.39,1.19c3.93.28,10.78,1.07,12.52,3.15,1.89,2.26,7.47-3.46,10-6.31l-2.92-1-2.55-.67-1.45-3-3.78-1.54-2.36-.58-1.17.3-3.32-1.18"/></g></svg>