<svg id="brownBear-subs" xmlns="http://www.w3.org/2000/svg" viewBox="0 0 1033.69 558.3"><defs><style>.cls-1{fill:none;stroke:#6d0000;stroke-linejoin:round;stroke-width:2px;}</style></defs><g id="californiacusX"><path class="cls-1" d="M206.65,113.89h-.76c.4,2.1-.27,2.86-.84,2.89-.72,0-1.71-.64-3.42-2.89h-2.91l-.61,2.73-1.05,2.74-1.11.88.29-3.15L193.08,116l-.68.65-.08,1.55-.71,2.86-1.86,4.5-1.86,3.06-1.83,3.06-2.58,3.2-.36,2.6-1.23,2.92L180,143.18l.64,1.86-.8,2.79.94,2.86.75,1.13-.41.8.45,4.76,1.41,3.45-.34,1.88.52.56,2.46.34.68.93,1.5.17,0,1,1.17.42,1.15,2-.1,1.76.78,5.86,3.3-6.21c.85-2.65,2-6.47,1.77-7.63-.32-1.83,1.83-6-.41-9.63s.18-10.55.41-12.15a8.4,8.4,0,0,0-.75-3.74l.34-2.24,3.15,2.32,2.33-2.32,3.06,2.25a13.58,13.58,0,0,0,3.38,1.64L210,123.87Z"/></g></svg>