<svg id="brownBear-subs" xmlns="http://www.w3.org/2000/svg" viewBox="0 0 1033.69 558.3"><defs><style>.cls-1{fill:#f0f;stroke:#8f0093;stroke-linejoin:round;stroke-width:0.5px;}</style></defs><g id="gobi"><path class="cls-1" d="M774.71,138.72c1.84,1.85,11,.41,11.54-.52a6.53,6.53,0,0,0,1-2.84l-.79.11-5.84-.76-2.93.08-2.32-2L773,129.66S772.88,136.87,774.71,138.72Z"/><path class="cls-1" d="M783.53,130.66c-1.06-.89-4-.6-8-.6a6.28,6.28,0,0,0-2.12.34l2,2.57,2.31,2,2.94-.08,5.84.76.77-.1A37,37,0,0,0,783.53,130.66Z"/></g></svg>