<svg id="brownBear-subs" xmlns="http://www.w3.org/2000/svg" viewBox="0 0 1033.69 558.3"><defs><style>.cls-1{fill:#fc6600;stroke:#963d00;stroke-linejoin:round;stroke-width:0.5px;}</style></defs><g id="kamchatka"><polygon class="cls-1" points="871.02 96.88 871.07 96.89 871.04 96.88 871.02 96.88"/><path class="cls-1" d="M919,77.92l2.23,1.16,3.87-2.45,5.62,2.16-.54-1.42s-8.69-6-15.43-10-15.86,0-18.91.2-6.07,8.53-9.24,9.52-9.32-3.77-18.91-2-9,17.89-9,17.89l.18.06,2.89-5.48,3.05-6.16,7.23-.93,7.89.54,1.68-1.54,4.18.48,1.81,2.26,3.49-.32,4.71-.82-3.73-1.92,1.2-5.2,5.16-1,5.62,3.8,2.78-3.4-1.1-2.53,2.62-.26,2.43,4.34-1.91,2.47-1.14,3.21-.75,4-3.19.71L905,86.71l-.44,1.89L907.06,93l7.19,7.18L919,105l2.65,2.26,1.37-3-1.84-3.32,3.15-.8-2.15-3.7,3-1.65L923,93.35l-1.25-2.69,2.2-.12-3.83-4.63-3.44-.71-1.26-1.27.09-3.05-1.17-2,3.65.43Z"/></g></svg>