<svg id="brownBear-subs" xmlns="http://www.w3.org/2000/svg" viewBox="0 0 1033.69 558.3"><defs><style>.cls-1{fill:none;stroke:#6d0000;stroke-linejoin:round;stroke-width:2px;}</style></defs><g id="mexicanX"><path class="cls-1" d="M207.39,175.75c.11.92,3.93,2.54,2.54,4s-1.7,3.35.3,5,3,.57,3.67,2.31a24.81,24.81,0,0,0,1.69,3.53c.15.27,3.11,1.08,2.65,2.81s.58,4.39,1.85,1.74,1.82-3.29.81-4.25-1.51,1.35-1.62-1.3.92-2.65.92-2.65,2.6-1.19-.34-3.45-6.27-2.32-6-3.94.88-4.39,1.45-4.73c.3-.18.42-1.26.67-2.31h-1.87l-.41,1.42h-2.23l-5,0A6.08,6.08,0,0,1,207.39,175.75Z"/><path class="cls-1" d="M227.82,187.45c-.92,2.16.35,2.23-.57,5.25s-3.81,4.05.34,5.5,5.43,3.11,6.35,1,2-2.37,1.79-3.65-2.22-5.2-.56-6.07l-.09-2.41-1.22-2-.15-.58c-.41-.09-.63-.49-.71-1.88,0-.21,0-.4,0-.6l-.47-1.31-1.65-1.37-2.33.07-1.17,1.28C227.89,183.66,228.23,186.5,227.82,187.45Z"/><polygon class="cls-1" points="248.47 231.31 248.75 231.67 248.82 231.28 248.47 231.31"/></g></svg>