<svg id="brownBear-subs" xmlns="http://www.w3.org/2000/svg" viewBox="0 0 1033.69 558.3"><defs><style>.cls-1{fill:#007aff;stroke:#00437f;stroke-linejoin:round;stroke-width:0.5px;}</style></defs><g id="tibet"><path class="cls-1" d="M792.37,146.53c-2.75-2.27-12.15,8.91-13,12.67s-9.73-1.47-17.53-2.1-9.86-.06-10.47,3,5.43,6.77,2.38,8.67c-2.31,1.43-2.92,3.81-4.88,4.58a37.47,37.47,0,0,0,4.6,4.52c1.26.7,4.47,4,8.26,4.71,2.77.51,8.63,1.66,11.55,2.24l1-.61,2.2.8,1.52.08,1.44.93,2.2-.43,2-2.56,2.77-2.19,2.57.84,1.68-1.45,1.83,2.14-.63,1.45c1.42-.82,1.42-2.73,4.86-2.85s2.29-3.55,4.77-4.5,3.71-9.82,4.8-11.7S795.12,148.79,792.37,146.53Z"/></g></svg>